<?xml version="1.0" standalone="no"?>
<!DOCTYPE svg PUBLIC "-//W3C//DTD SVG 1.1//EN" "http://www.w3.org/Graphics/SVG/1.1/DTD/svg11.dtd" >
<svg>
<metadata>
Created by FontForge 20090914 at Sat Feb 17 19:58:02 2018
 By www-data
Copyright (c) 2003 The Hoefler Type Foundry, Inc., dba Hoefler &#38; Frere-Jones. All Rights Reserved.
</metadata>
<defs>
<font id="GothamPro-BlackItalic" horiz-adv-x="500" >
  <font-face 
    font-family="Gotham Pro Black"
    font-weight="400"
    font-style="italic"
    font-stretch="normal"
    units-per-em="1000"
    panose-1="2 0 5 3 4 0 0 9 0 4"
    ascent="800"
    descent="-200"
    x-height="541"
    cap-height="700"
    bbox="-145 -180 1311 932"
    underline-thickness="20"
    underline-position="-113"
    slope="-15"
    unicode-range="U+0020-U+FB04"
  />
<missing-glyph 
d="M0 0v700h500v-700h-500zM81 49h340l-171 255zM50 95l170 254l-170 256v-510zM451 95v510l-172 -256zM250 395l171 255h-340z" />
    <glyph glyph-name="ff" unicode="ff" horiz-adv-x="836" 
d="M13 0l104.999 388h-64l41 153h63l3 11c16.667 65.333 43.834 112.5 81.501 141.5s87.834 43.5 150.501 43.5c44.667 0 85 -6 121 -18l-35 -133c-22.667 8 -44 12 -64 12c-36.667 0 -59.334 -17 -68.001 -51l-3 -9h122l-40 -150h-118l-105 -388h-190zM430.999 0
l104.999 388h-64l41 153h63l3 11c16.667 65.333 43.834 112.5 81.501 141.5s87.834 43.5 150.501 43.5c44.667 0 85 -6 121 -18l-35 -133c-22.667 8 -44 12 -64 12c-36.667 0 -59.334 -17 -68.001 -51l-3 -9h122l-40 -150h-118l-105 -388h-190z" />
    <glyph glyph-name="fi" unicode="fi" horiz-adv-x="719" 
d="M13 0l104.999 388h-64l41 153h63l3 11c16.667 65.333 43.834 112.5 81.501 141.5s87.834 43.5 150.501 43.5c44.667 0 85 -6 121 -18l-35 -133c-22.667 8 -44 12 -64 12c-36.667 0 -59.334 -17 -68.001 -51l-3 -9h122l-40 -150h-118l-105 -388h-190zM400.999 0l145 541
h190l-145 -541h-190zM555.999 590l38 140h198l-38 -140h-198z" />
    <glyph glyph-name="fl" unicode="fl" horiz-adv-x="719" 
d="M13 0l104.999 388h-64l41 153h63l3 11c16.667 65.333 43.834 112.5 81.501 141.5s87.834 43.5 150.501 43.5c44.667 0 85 -6 121 -18l-35 -133c-22.667 8 -44 12 -64 12c-36.667 0 -59.334 -17 -68.001 -51l-3 -9h122l-40 -150h-118l-105 -388h-190zM400.999 0l196 730
h190l-196 -730h-190z" />
    <glyph glyph-name="ffi" unicode="ffi" horiz-adv-x="1137" 
d="M13 0l104.999 388h-64l41 153h63l3 11c16.667 65.333 43.834 112.5 81.501 141.5s87.834 43.5 150.501 43.5c44.667 0 85 -6 121 -18l-35 -133c-22.667 8 -44 12 -64 12c-36.667 0 -59.334 -17 -68.001 -51l-3 -9h122l-40 -150h-118l-105 -388h-190zM430.999 0
l104.999 388h-64l41 153h63l3 11c16.667 65.333 43.834 112.5 81.501 141.5s87.834 43.5 150.501 43.5c44.667 0 85 -6 121 -18l-35 -133c-22.667 8 -44 12 -64 12c-36.667 0 -59.334 -17 -68.001 -51l-3 -9h122l-40 -150h-118l-105 -388h-190zM818.998 0l145 541h190
l-145 -541h-190zM973.998 590l38 140h198l-38 -140h-198z" />
    <glyph glyph-name="ffl" unicode="ffl" horiz-adv-x="1137" 
d="M13 0l104.999 388h-64l41 153h63l3 11c16.667 65.333 43.834 112.5 81.501 141.5s87.834 43.5 150.501 43.5c44.667 0 85 -6 121 -18l-35 -133c-22.667 8 -44 12 -64 12c-36.667 0 -59.334 -17 -68.001 -51l-3 -9h122l-40 -150h-118l-105 -388h-190zM430.999 0
l104.999 388h-64l41 153h63l3 11c16.667 65.333 43.834 112.5 81.501 141.5s87.834 43.5 150.501 43.5c44.667 0 85 -6 121 -18l-35 -133c-22.667 8 -44 12 -64 12c-36.667 0 -59.334 -17 -68.001 -51l-3 -9h122l-40 -150h-118l-105 -388h-190zM818.998 0l196 730h190
l-196 -730h-190z" />
    <glyph glyph-name=".notdef" 
d="M0 0v700h500v-700h-500zM81 49h340l-171 255zM50 95l170 254l-170 256v-510zM451 95v510l-172 -256zM250 395l171 255h-340z" />
    <glyph glyph-name="space" unicode=" " horiz-adv-x="277" 
 />
    <glyph glyph-name="exclam" unicode="!" horiz-adv-x="322" 
d="M-10 0l45 170h198l-46 -170h-197zM100 228l45 387l23 85h217l-24 -85l-162 -387h-99z" />
    <glyph glyph-name="quotedbl" unicode="&#x22;" horiz-adv-x="540" 
d="M67 341l95 359h204l-1 -5l-198 -354h-100zM326 341l96 359h204l-1 -5l-198 -354h-101z" />
    <glyph glyph-name="numbersign" unicode="#" horiz-adv-x="697" 
d="M38 0l47 135h-82l36 161h103l39 112h-94l36 161h115l46 131h145l-46 -131h126l46 131h145l-46 -131h82l-36 -161h-102l-40 -112h95l-36 -161h-115l-48 -135h-145l48 135h-127l-47 -135h-145zM281 292h135l42 120h-135z" />
    <glyph glyph-name="dollar" unicode="$" horiz-adv-x="656" 
d="M177 -98l31.0029 106.998c-94.667 17.333 -170.334 55 -227.001 113l116 121c52 -43.333 105.333 -70.666 160 -81.999l37 122c-64.667 20 -112.834 44.167 -144.501 72.5s-47.5 67.5 -47.5 117.5c0 64.667 27.833 118.667 83.5 162s128.5 65 218.5 65h9l17 58h104
l-20 -69c70 -16 129.333 -45.333 178 -88l-107 -130c-34.667 28.667 -74.334 50 -119.001 64l-35 -115c62.667 -20.667 109.5 -45.167 140.5 -73.5s46.5 -67.166 46.5 -116.499c0 -68 -28.167 -123.333 -84.5 -166s-129.5 -64 -219.5 -64h-5l-28 -98h-104zM348.003 151.998
c54 2 81 21.001 81 57.001c0 10.667 -3.5 19.667 -10.5 27s-19.833 14.666 -38.5 21.999zM345.003 445.999l30 103c-27.333 0 -48 -5.16699 -62 -15.5s-21 -23.5 -21 -39.5c0 -11.333 3.83301 -20.5 11.5 -27.5s21.5 -13.833 41.5 -20.5z" />
    <glyph glyph-name="percent" unicode="%" horiz-adv-x="923" 
d="M68 0l689 700h141l-690 -700h-140zM683 -10c-52 0 -92.833 15.167 -122.5 45.5s-44.5 69.5 -44.5 117.5c0 56.667 19.167 107 57.5 151s86.833 66 145.5 66c52 0 92.833 -15.167 122.5 -45.5s44.5 -69.5 44.5 -117.5c0 -56.667 -19.167 -107 -57.5 -151
s-86.833 -66 -145.5 -66zM688 95c24 0 43.667 11 59 33s23 46.667 23 74c0 18.667 -5.16699 33.834 -15.5 45.501s-23.833 17.5 -40.5 17.5c-24 0 -43.667 -11 -59 -33s-23 -46.667 -23 -74c0 -18.667 5.16699 -33.834 15.5 -45.501s23.833 -17.5 40.5 -17.5zM247 330
c-52 0 -93 15.167 -123 45.5s-45 69.5 -45 117.5c0 56.667 19.167 107 57.5 151s86.833 66 145.5 66c52 0 92.833 -15.167 122.5 -45.5s44.5 -69.5 44.5 -117.5c0 -56.667 -19.167 -107 -57.5 -151s-86.5 -66 -144.5 -66zM252 435c23.333 0 42.666 11 57.999 33
s23 46.667 23 74c0 18.667 -5 33.834 -15 45.501s-23.667 17.5 -41 17.5c-23.333 0 -42.666 -11 -57.999 -33s-23 -46.667 -23 -74c0 -18.667 5 -33.834 15 -45.501s23.667 -17.5 41 -17.5z" />
    <glyph glyph-name="ampersand" unicode="&#x26;" horiz-adv-x="700" 
d="M517 -14l-48.999 68.998c-69.333 -44 -140.666 -66 -213.999 -66c-74.667 0 -133.5 17.333 -176.5 52s-64.5 81.667 -64.5 141c0 52 17.667 96.833 53 134.5s84.666 66.834 147.999 87.501c-21.333 41.333 -32 80 -32 116c0 54.667 20.5 100.5 61.5 137.5
s94.5 55.5 160.5 55.5c61.333 0 111.333 -16.667 150 -50s58 -75.666 58 -126.999c0 -86.667 -57.667 -150.667 -173 -192l61 -83c24 26 48 56.667 72 92l113 -79c-28.667 -44 -61.334 -85.333 -98.001 -124l57 -77zM278.001 132.998c32 0 66.333 11.001 103 33.001l-95 135
c-60 -24.667 -90 -59.334 -90 -104.001c0 -18.667 7.33301 -34 22 -46s34.667 -18 60 -18zM363.001 441.999c34 12.667 58.167 25.668 72.5 39.001s21.5 29.333 21.5 48c0 14.667 -4.83301 27 -14.5 37s-22.167 15 -37.5 15c-19.333 0 -35 -6.66699 -47 -20
s-18 -29.333 -18 -48c0 -22.667 7.66699 -46.334 23 -71.001z" />
    <glyph glyph-name="quotesingle" unicode="'" horiz-adv-x="282" 
d="M67 341l95 359h207l-1 -5l-198 -354h-103z" />
    <glyph glyph-name="parenleft" unicode="(" horiz-adv-x="455" 
d="M242 -143c-131.333 100 -197 220 -197 360c0 116 37.5 217.333 112.5 304s174.833 150.667 299.5 192l56 -129c-92.667 -40.667 -163.167 -93.5 -211.5 -158.5s-72.5 -132.833 -72.5 -203.5c0 -83.333 40.333 -168.333 121 -255z" />
    <glyph glyph-name="parenright" unicode=")" horiz-adv-x="455" 
d="M7 -140l-57 129c93.333 40.667 164 93.5 212 158.5s72 132.833 72 203.5c0 83.333 -40.333 168.333 -121 255l109 110c130.667 -100 196 -220 196 -360c0 -115.333 -37.5 -216.5 -112.5 -303.5s-174.5 -151.167 -298.5 -192.5z" />
    <glyph glyph-name="asterisk" unicode="*" horiz-adv-x="436" 
d="M285 329l-102 27l58 121l-122 -58l-28 103l135 10l-112 77l77 76l76 -112l10 134l102 -27l-58 -122l122 59l28 -104l-135 -10l112 -77l-77 -75l-76 112z" />
    <glyph glyph-name="plus" unicode="+" horiz-adv-x="650" 
d="M191 96l46 172h-168l45 168h168l46 172h175l-46 -172h168l-45 -168h-168l-46 -172h-175z" />
    <glyph glyph-name="comma" unicode="," horiz-adv-x="302" 
d="M-66 -165l-8.00195 73.002c75.333 7.33301 119 38.666 131 93.999h-77l53 195h197l-45 -168c-17.333 -65.333 -45.166 -113.333 -83.499 -144s-94.166 -47.334 -167.499 -50.001z" />
    <glyph glyph-name="hyphen" unicode="-" horiz-adv-x="417" 
d="M33 229l45 167h328l-44 -167h-329z" />
    <glyph glyph-name="period" unicode="." horiz-adv-x="302" 
d="M-20 0l52 195h198l-53 -195h-197z" />
    <glyph glyph-name="slash" unicode="/" horiz-adv-x="535" 
d="M-145 -128l682 926h166l-682 -926h-166z" />
    <glyph glyph-name="zero" unicode="0" horiz-adv-x="726" 
d="M330 -14c-85.333 0 -153.335 26.668 -204.002 80.001s-76 121.333 -76 204c0 74.667 15.667 145.667 47 213s77 122.666 137 165.999s127.667 65 203 65c86 0 154.333 -26.667 205 -80s76 -121.333 76 -204c0 -75.333 -15.667 -146.5 -47 -213.5
s-77.166 -122.167 -137.499 -165.5s-128.166 -65 -203.499 -65zM346.998 157.001c50 0 91.5 28 124.5 84s49.5 115.333 49.5 178c0 40 -9.16699 70.5 -27.5 91.5s-42.833 31.5 -73.5 31.5c-50 0 -91.333 -28 -124 -84s-49 -115.333 -49 -178c0 -40 9 -70.5 27 -91.5
s42.333 -31.5 73 -31.5z" />
    <glyph glyph-name="one" unicode="1" horiz-adv-x="430" 
d="M84 0l138 517l-117 -28l-4 157l222 59h141l-189 -705h-191z" />
    <glyph glyph-name="two" unicode="2" horiz-adv-x="627" 
d="M-33 0l41 149.999l356 232c54 34.667 81 69.334 81 104.001c0 18 -5.83301 32 -17.5 42s-28.5 15 -50.5 15c-46.667 0 -99.667 -29 -159 -87l-113 119c82.667 90.667 179.334 136 290.001 136c75.333 0 135.166 -18.5 179.499 -55.5s66.5 -85.167 66.5 -144.5
c0 -44 -13.667 -84.667 -41 -122s-75 -78 -143 -122l-171 -109h279l-43 -158h-555z" />
    <glyph glyph-name="three" unicode="3" horiz-adv-x="611" 
d="M256 -14c-126 0 -219.333 45 -280 135l132 109c39.333 -52 88.666 -78 147.999 -78c34 0 62 8.33301 84 25s33 36 33 58c0 42.667 -36.333 64 -109 64h-67l-4 100l196 144h-262l42 157h506l-38 -139l-214 -149c94.667 -26 142 -82.667 142 -170
c0 -76 -28.667 -137.667 -86 -185s-131.666 -71 -222.999 -71z" />
    <glyph glyph-name="four" unicode="4" horiz-adv-x="679" 
d="M313 0l36 136h-321l-21 142l476 427h205l-113 -424h89l-40 -145h-88l-37 -136h-186zM223 280h165l53 199z" />
    <glyph glyph-name="five" unicode="5" horiz-adv-x="612" 
d="M261 -13c-56 0 -110.169 12.001 -162.502 36.001s-92.5 53.333 -120.5 88l122 114c50.667 -49.333 106.334 -74 167.001 -74c36 0 65.333 9.16699 88 27.5s34 40.833 34 67.5c0 22 -8.83301 40 -26.5 54s-43.5 21 -77.5 21s-67 -9.66699 -99 -29l-99 69l111 339h462
l-43 -160h-306l-32 -97c27.333 9.33301 57 14 89 14c64.667 0 116.834 -17.5 156.501 -52.5s59.5 -82.167 59.5 -141.5c0 -78.667 -29.833 -144.334 -89.5 -197.001s-137.5 -79 -233.5 -79z" />
    <glyph glyph-name="six" unicode="6" horiz-adv-x="654" 
d="M317 -13c-84 0 -149.333 23.334 -196 70.001c-48 48 -72 112.333 -72 193c0 65.333 11.833 129.166 35.5 191.499s57.5 115.5 101.5 159.5c74.667 74.667 166.334 112 275.001 112c91.333 0 166.666 -25.333 225.999 -76l-97 -137c-40.667 36 -86.334 54 -137.001 54
c-54 0 -99.333 -18.333 -136 -55c-26 -26 -45.667 -58 -59 -96c42.667 36.667 96 55 160 55c56.667 0 104.334 -17 143.001 -51s58 -80.333 58 -139c0 -77.333 -29.5 -143.5 -88.5 -198.5s-130.167 -82.5 -213.5 -82.5zM317 134.001c32 0 58.499 11.1689 79.499 33.502
s31.5 48.166 31.5 77.499c0 23.333 -7.83301 42.166 -23.5 56.499s-35.834 21.5 -60.501 21.5c-33.333 0 -60.666 -10.833 -81.999 -32.5s-32 -47.5 -32 -77.5c0 -22.667 7.33301 -40.667 22 -54c16.667 -16.667 38.334 -25 65.001 -25z" />
    <glyph glyph-name="seven" unicode="7" horiz-adv-x="614" 
d="M-4 0l422 537h-316l44 163h540l-40 -146l-428 -554h-222z" />
    <glyph glyph-name="eight" unicode="8" horiz-adv-x="664" 
d="M305 -10c-78.667 0 -145.168 18 -199.501 54s-81.5 83.333 -81.5 142c0 48 15 88 45 120s72 55.333 126 70c-50.667 30 -76 74 -76 132c0 53.333 25 100.333 75 141s118 61 204 61c76.667 0 139 -18.167 187 -54.5s72 -81.833 72 -136.5
c0 -42 -13.167 -77.833 -39.5 -107.5s-63.166 -51.5 -110.499 -65.5c68.667 -28.667 103 -76.667 103 -144c0 -60 -28.167 -110.333 -84.5 -151s-129.833 -61 -220.5 -61zM315.999 133c30.667 0 56.332 7.83301 76.999 23.5s31 35.834 31 60.501
c0 22 -9.66699 39.833 -29 53.5s-43 20.5 -71 20.5c-31.333 0 -57.166 -7.83301 -77.499 -23.5s-30.5 -35.834 -30.5 -60.501c0 -22 9.66699 -39.833 29 -53.5s43 -20.5 71 -20.5zM379.997 417c24.667 0 47.001 7.33301 67.001 22s30 34.334 30 59.001
c0 20.667 -8.5 37.334 -25.5 50.001s-38.5 19 -64.5 19c-24.667 0 -47 -7.33301 -67 -22s-30 -34.334 -30 -59.001c0 -20.667 8.66699 -37.334 26 -50.001s38.666 -19 63.999 -19z" />
    <glyph glyph-name="nine" unicode="9" horiz-adv-x="654" 
d="M238 -13c-92 0 -169.668 27.001 -233.001 81.001l97 136c46.667 -38.667 93.667 -58 141 -58c53.333 0 99 19 137 57c25.333 24.667 44.333 55 57 91c-42 -36 -95 -54 -159 -54c-57.333 0 -105.166 16.833 -143.499 50.5s-57.5 80.167 -57.5 139.5
c0 79.333 29.333 146.5 88 201.5s130 82.5 214 82.5s149.333 -23.333 196 -70c48.667 -48.667 73 -115.334 73 -200.001c0 -62.667 -12 -124.667 -36 -186s-58.333 -114.333 -103 -159c-74.667 -74.667 -165 -112 -271 -112zM353.999 374.001c32 0 58.667 11.168 80 33.501
s32 48.833 32 79.5c0 21.333 -7 39.666 -21 54.999c-16 16 -37.667 24 -65 24c-32.667 0 -59.5 -11.167 -80.5 -33.5s-31.5 -48.833 -31.5 -79.5c0 -24 8 -43.167 24 -57.5s36.667 -21.5 62 -21.5z" />
    <glyph glyph-name="colon" unicode=":" horiz-adv-x="307" 
d="M-18 0l53 195h197l-52 -195h-198zM75 346l52 195h198l-53 -195h-197z" />
    <glyph glyph-name="semicolon" unicode=";" horiz-adv-x="307" 
d="M-64 -167l-8.00195 73.002c75.333 7.33301 119 38.666 131 93.999h-77l53 195h197l-45 -168c-17.333 -65.333 -45.166 -113.333 -83.499 -144s-94.166 -47.334 -167.499 -50.001zM74.998 346.002l52 195h198l-53 -195h-197z" />
    <glyph glyph-name="less" unicode="&#x3c;" horiz-adv-x="640" 
d="M513 65l-445 198l48 177l550 198l-50 -185l-356 -110l298 -109z" />
    <glyph glyph-name="equal" unicode="=" horiz-adv-x="640" 
d="M38 134l45 167h491l-44 -167h-492zM110 403l45 167h492l-45 -167h-492z" />
    <glyph glyph-name="greater" unicode="&#x3e;" horiz-adv-x="640" 
d="M20 65l50 185l356 110l-298 109l45 169l445 -198l-48 -177z" />
    <glyph glyph-name="question" unicode="?" horiz-adv-x="540" 
d="M67 0l46 170h197l-46 -170h-197zM168 228l18 167.999l9 8c121.333 10 182 39 182 87c0 33.333 -22.333 50 -67 50c-43.333 0 -88.333 -18 -135 -54l-78 135c68 58.667 150.333 88 247 88c68 0 122.667 -17.333 164 -52s62 -78 62 -130
c0 -58.667 -20.833 -107.667 -62.5 -147s-104.5 -65.666 -188.5 -78.999l-30 -74h-121z" />
    <glyph glyph-name="at" unicode="@" horiz-adv-x="965" 
d="M462 -154c-123.333 0 -223.332 35.833 -299.999 107.5s-115 165.167 -115 280.5c0 85.333 21.333 164.833 64 238.5s101.667 132.5 177 176.5s158.333 66 249 66c122.667 0 220.334 -32.833 293.001 -98.5s109 -147.167 109 -244.5c0 -102.667 -24 -180.834 -72 -234.501
s-105 -80.5 -171 -80.5c-35.333 0 -66.333 7.5 -93 22.5s-46.334 34.833 -59.001 59.5c-48 -53.333 -101 -80 -159 -80c-44.667 0 -81.667 15.5 -111 46.5s-44 72.833 -44 125.5c0 80.667 24.333 148.834 73 204.501s105.667 83.5 171 83.5c57.333 0 100.333 -24 129 -72
l21 67l147 -40l-80 -254c-4.66699 -14 -7 -27.667 -7 -41c0 -39.333 21.667 -59 65 -59c36 0 69.833 23.167 101.5 69.5s47.5 108.166 47.5 185.499c0 84.667 -32.667 155.834 -98 213.501s-153 86.5 -263 86.5c-126 0 -232.333 -43.5 -319 -130.5s-130 -190.5 -130 -310.5
c0 -104 34.667 -188.167 104 -252.5s159.666 -96.5 270.999 -96.5c68.667 0 137 15 205 45l16 -37c-69.333 -31.333 -143.333 -47 -222 -47zM460.001 191c28.667 0 54 12.5 76 37.5s33 54.833 33 89.5c0 20.667 -6.5 37.334 -19.5 50.001s-29.833 19 -50.5 19
c-29.333 0 -54.666 -12.333 -75.999 -37s-32 -54.334 -32 -89.001c0 -21.333 6.16699 -38.333 18.5 -51s29.166 -19 50.499 -19z" />
    <glyph glyph-name="A" unicode="A" horiz-adv-x="775" 
d="M-74 0l487 705h190l109 -705h-204l-17 125h-270l-84 -125h-211zM319 276h156l-25 201z" />
    <glyph glyph-name="B" unicode="B" horiz-adv-x="714" 
d="M-12 0l188 699.998h291c89.333 0 153.833 -15.667 193.5 -47s59.5 -71.666 59.5 -120.999c0 -44.667 -13.833 -82.667 -41.5 -114s-66.167 -53 -115.5 -65c70.667 -25.333 106 -72 106 -140c0 -63.333 -27 -114.666 -81 -153.999s-133 -59 -237 -59h-363zM219 155.998
h147.001c33.333 0 59.666 6.83301 78.999 20.5s29 31.5 29 53.5c0 36.667 -28.667 55 -86 55h-134zM291.001 420.998h131c34 0 60.167 6.33301 78.5 19s27.5 30 27.5 52c0 34.667 -28 52 -84 52h-121z" />
    <glyph glyph-name="C" unicode="C" horiz-adv-x="727" 
d="M382 -14c-98 0 -177.667 27.8311 -239 83.498s-92 129.834 -92 222.501c0 70 17.333 136.833 52 200.5s86 116.5 154 158.5s145 63 231 63c70 0 129.5 -15.667 178.5 -47s84.167 -74.666 105.5 -129.999l-168 -90c-29.333 60 -76.333 90 -141 90
c-57.333 0 -106.5 -23 -147.5 -69s-61.5 -100 -61.5 -162c0 -44 13 -79 39 -105s59.667 -39 101 -39c52.667 0 102.667 23.667 150 71l131 -116c-77.333 -87.333 -175 -131 -293 -131z" />
    <glyph glyph-name="D" unicode="D" horiz-adv-x="761" 
d="M-12 0l188 700h226c122.667 0 214 -30 274 -90c50.667 -50.667 76 -119 76 -205c0 -107.333 -38.333 -199.333 -115 -276c-86 -86 -208.333 -129 -367 -129h-282zM229 172h64c86 0 152.667 23.667 200 71c40 40 60 88.667 60 146c0 40.667 -11.667 72.667 -35 96
c-27.333 28.667 -73 43 -137 43h-56z" />
    <glyph glyph-name="E" unicode="E" horiz-adv-x="669" 
d="M-12 0l188 700h561l-45 -165h-368l-29 -106h334l-41 -153h-334l-30 -111h374l-44 -165h-566z" />
    <glyph glyph-name="F" unicode="F" horiz-adv-x="652" 
d="M-12 0l188 700h560l-46 -170h-365l-32 -119h330l-43 -161h-330l-67 -250h-195z" />
    <glyph glyph-name="G" unicode="G" horiz-adv-x="762" 
d="M387 -14c-43.333 0 -84.501 6.16895 -123.501 18.502s-74.667 30.666 -107 54.999s-58.166 56.666 -77.499 96.999s-29 86.5 -29 138.5c0 114.667 42.333 213.167 127 295.5s192 123.5 322 123.5c66 0 124.333 -11.333 175 -34s89 -51 115 -85l-130 -126
c-48 48 -105.667 72 -173 72c-69.333 0 -126.333 -23.167 -171 -69.5s-67 -102.5 -67 -168.5c0 -47.333 14.833 -84 44.5 -110s67.167 -39 112.5 -39c34.667 0 65.667 6.33301 93 19l28 94h-135l37 142h321l-100 -353c-80.667 -46.667 -168 -70 -262 -70z" />
    <glyph glyph-name="H" unicode="H" horiz-adv-x="757" 
d="M-12 0l188 700h195l-71 -262h247l70 262h195l-188 -700h-195l72 266h-247l-71 -266h-195z" />
    <glyph glyph-name="I" unicode="I" horiz-adv-x="325" 
d="M-7 0l188 700h194l-188 -700h-194z" />
    <glyph glyph-name="J" unicode="J" horiz-adv-x="568" 
d="M197 -12c-49.333 0 -95.167 10.667 -137.5 32s-75.833 51.666 -100.5 90.999l132 115c33.333 -45.333 70.666 -68 111.999 -68c28.667 0 53.667 10.667 75 32c18.667 18.667 36.334 58.334 53.001 119.001l105 391h193l-114 -428c-25.333 -94.667 -60 -164 -104 -208
c-52 -50.667 -123.333 -76 -214 -76z" />
    <glyph glyph-name="K" unicode="K" horiz-adv-x="722" 
d="M-12 0l188 700h195l-76 -280l289 280h247l-330 -307l156 -393h-210l-101 270l-121 -111l-42 -159h-195z" />
    <glyph glyph-name="L" unicode="L" horiz-adv-x="617" 
d="M-12 0l188 700h195l-142 -530h334l-46 -170h-529z" />
    <glyph glyph-name="M" unicode="M" horiz-adv-x="866" 
d="M-12 0l188 700h196l93 -271l238 271h218l-188 -700h-195l107 402l-251 -274h-4l-103 272l-107 -400h-192z" />
    <glyph glyph-name="N" unicode="N" horiz-adv-x="781" 
d="M-12 0l188 700h181l181 -389l105 389h193l-188 -700h-170l-189 403l-108 -403h-193z" />
    <glyph glyph-name="O" unicode="O" horiz-adv-x="813" 
d="M386 -13c-98.667 0 -179 29.833 -241 89.5s-93 134.5 -93 224.5c0 52.667 10.5 104 31.5 154s49.5 94 85.5 132s80.167 68.5 132.5 91.5s108.166 34.5 167.499 34.5c98.667 0 179 -29.833 241 -89.5s93 -134.5 93 -224.5c0 -52.667 -10.5 -104 -31.5 -154
s-49.5 -94 -85.5 -132s-80.167 -68.5 -132.5 -91.5s-108.166 -34.5 -167.499 -34.5zM403 161c58.667 0 107 23.167 145 69.5s57 97.5 57 153.5c0 46 -13.5 83.333 -40.5 112s-64.5 43 -112.5 43c-58 0 -106.167 -23.333 -144.5 -70s-57.5 -97.667 -57.5 -153
c0 -46 13.5 -83.333 40.5 -112s64.5 -43 112.5 -43z" />
    <glyph glyph-name="P" unicode="P" horiz-adv-x="672" 
d="M-12 0l188.001 700.001h229c110.667 0 190.667 -24.667 240 -74c36.667 -36.667 55 -84.334 55 -143.001c0 -86 -31.833 -154.5 -95.5 -205.5s-147.834 -76.5 -252.501 -76.5h-115l-54 -201h-195zM277.001 352.001l73 0.000976562c47.333 0 84.333 9.83301 111 29.5
s40 46.167 40 79.5c0 19.333 -6.66699 35.666 -20 48.999c-18 18 -45.667 27 -83 27h-72z" />
    <glyph glyph-name="Q" unicode="Q" horiz-adv-x="813" 
d="M603 -45l-45 69.001c-53.333 -24.667 -110.666 -37 -171.999 -37c-98.667 0 -179 29.833 -241 89.5s-93 134.5 -93 224.5c0 52.667 10.5 104 31.5 154s49.5 94 85.5 132s80.167 68.5 132.5 91.5s108.166 34.5 167.499 34.5c98.667 0 179 -29.833 241 -89.5
s93 -134.5 93 -224.5c0 -106.667 -38.333 -200.334 -115 -281.001l53 -72zM402 157.001c15.333 0 32 3.00098 50 9.00098l-77 104l139 92l60 -94c20.667 36 31 74 31 114c0 46.667 -13.5 84.5 -40.5 113.5s-64.5 43.5 -112.5 43.5c-58.667 0 -107.167 -23.333 -145.5 -70
s-57.5 -98.334 -57.5 -155.001c0 -46.667 13.5 -84.5 40.5 -113.5s64.5 -43.5 112.5 -43.5z" />
    <glyph glyph-name="R" unicode="R" horiz-adv-x="720" 
d="M-12 0l188 700h264c112 0 192.333 -24.333 241 -73c36 -36 54 -83.667 54 -143c0 -60 -17.5 -111.5 -52.5 -154.5s-87.5 -74.167 -157.5 -93.5l108 -236h-214l-93 212h-86l-57 -212h-195zM280 364h111c44 0 79 8.66699 105 26s39 41 39 71c0 18 -6 33.667 -18 47
c-16 16 -44.667 24 -86 24h-105z" />
    <glyph glyph-name="S" unicode="S" horiz-adv-x="645" 
d="M302 -12c-137.333 0 -245.667 42.667 -325 128l125 129c68.667 -63.333 140.667 -95 216 -95c23.333 0 42.333 4.66699 57 14s22 22 22 38c0 14 -7.33301 26 -22 36s-46.334 24.333 -95.001 43c-61.333 23.333 -107 49.333 -137 78s-45 67 -45 115
c0 69.333 28 126.333 84 171s127 67 213 67c118.667 0 214.334 -34.667 287.001 -104l-120 -134c-59.333 51.333 -121 77 -185 77c-22.667 0 -41 -4.66699 -55 -14s-21 -21.333 -21 -36c0 -13.333 7 -24.333 21 -33s46 -23 96 -43c60 -22.667 105.333 -48.667 136 -78
s46 -68.333 46 -117c0 -72 -27.833 -130.333 -83.5 -175s-127.167 -67 -214.5 -67z" />
    <glyph glyph-name="T" unicode="T" horiz-adv-x="645" 
d="M151 0l143 530h-210l46 170h613l-45 -170h-210l-142 -530h-195z" />
    <glyph glyph-name="U" unicode="U" horiz-adv-x="760" 
d="M342 -13c-90 0 -159.667 21.5 -209 64.5s-74 103.167 -74 180.5c0 34 5.33301 71.333 16 112l96 356h196l-99 -370c-6.66699 -24.667 -10 -46.667 -10 -66c0 -32 9.5 -57 28.5 -75s45.833 -27 80.5 -27c38 0 69.333 12.333 94 37c25.333 24 45 62.667 59 116l104 385h196
l-111 -414c-24.667 -91.333 -61 -161 -109 -209c-60 -60 -146 -90 -258 -90z" />
    <glyph glyph-name="V" unicode="V" horiz-adv-x="739" 
d="M202 -5l-93 705h212l39 -440l275 440h219l-471 -705h-181z" />
    <glyph glyph-name="W" unicode="W" horiz-adv-x="1102" 
d="M162 -5l-45 705h201l13 -405l242 407h168l27 -407l230 405h211l-423 -705h-174l-32 398l-245 -398h-173z" />
    <glyph glyph-name="X" unicode="X" horiz-adv-x="713" 
d="M-75 0l341 366l-145 334h213l77 -197l173 197h234l-324 -348l154 -352h-214l-84 216l-190 -216h-235z" />
    <glyph glyph-name="Y" unicode="Y" horiz-adv-x="677" 
d="M159 0l73 271l-141 429h209l69 -262l211 262h232l-391 -450l-67 -250h-195z" />
    <glyph glyph-name="Z" unicode="Z" horiz-adv-x="681" 
d="M-36 0l37 141l446 395h-328l45 164h595l-38 -141l-446 -395h341l-44 -164h-608z" />
    <glyph glyph-name="bracketleft" unicode="[" horiz-adv-x="468" 
d="M-26 -130l223 830h346l-35 -129h-176l-154 -572h176l-34 -129h-346z" />
    <glyph glyph-name="backslash" unicode="\" horiz-adv-x="535" 
d="M316 -128l-207 926h153l207 -926h-153z" />
    <glyph glyph-name="bracketright" unicode="]" horiz-adv-x="468" 
d="M-67 -130l35 129h176l153 572h-176l35 129h346l-223 -830h-346z" />
    <glyph glyph-name="asciicircum" unicode="^" 
d="M89 493l199 206h128l89 -206h-123l-50 97l-102 -97h-141z" />
    <glyph glyph-name="underscore" unicode="_" horiz-adv-x="600" 
d="M-117 -160l31 116h604l-31 -116h-604z" />
    <glyph glyph-name="grave" unicode="`" 
d="M333 587l-111 128l179 57l55 -185h-123z" />
    <glyph glyph-name="a" unicode="a" horiz-adv-x="597" 
d="M152 -11c-44.667 0 -81 13.332 -109 39.999s-42 62.334 -42 107.001c0 58.667 21.667 105.167 65 139.5s101 51.5 173 51.5c45.333 0 91 -7 137 -21l2 7c3.33301 14.667 5 25.667 5 33c0 38.667 -31 58 -93 58c-52 0 -100.667 -9 -146 -27l-27 138
c62.667 22 133.667 33 213 33c80 0 140.167 -15 180.5 -45s60.5 -72.333 60.5 -127c0 -24 -3.66699 -50 -11 -78l-80 -298h-187l15 58c-49.333 -46 -101.333 -69 -156 -69zM240 105.999c24 0 46.668 9.33301 68.001 28s35.666 42 42.999 70l5 18c-24 8 -47.667 12 -71 12
c-30 0 -54 -7 -72 -21s-27 -33 -27 -57c0 -15.333 5 -27.5 15 -36.5s23 -13.5 39 -13.5z" />
    <glyph glyph-name="b" unicode="b" horiz-adv-x="672" 
d="M353 -12c-72 0 -126.664 28.667 -163.997 86l-20 -74h-190l195 730h190l-66 -246c47.333 46 98.666 69 153.999 69s101.166 -20 137.499 -60s54.5 -94 54.5 -162c0 -96 -28.833 -177.167 -86.5 -243.5s-125.834 -99.5 -204.501 -99.5zM320.003 146
c36 0 67 15.168 93 45.501s39 66.833 39 109.5c0 28.667 -8.5 51.667 -25.5 69s-39.167 26 -66.5 26c-36 0 -67.333 -15.333 -94 -46s-40 -66.667 -40 -108c0 -28.667 8.66699 -51.834 26 -69.501s40 -26.5 68 -26.5z" />
    <glyph glyph-name="c" unicode="c" horiz-adv-x="563" 
d="M281 -13c-74 0 -134.667 21.499 -182 64.499s-71 100.5 -71 172.5c0 90.667 31.667 168 95 232s140 96 230 96c60 0 109.5 -13.667 148.5 -41s66.167 -63 81.5 -107l-149 -77c-19.333 45.333 -50.333 68 -93 68c-35.333 0 -65.833 -16.333 -91.5 -49
s-38.5 -70 -38.5 -112c0 -27.333 7.83301 -49.166 23.5 -65.499s35.5 -24.5 59.5 -24.5c34.667 0 68.667 16.667 102 50l116 -101c-60.667 -70.667 -137.667 -106 -231 -106z" />
    <glyph glyph-name="d" unicode="d" horiz-adv-x="672" 
d="M220 -12c-55.333 0 -101.168 20 -137.501 60s-54.5 94 -54.5 162c0 96 28.833 177.167 86.5 243.5s125.834 99.5 204.501 99.5c72 0 126.667 -28.667 164 -86l70 263h190l-195 -730h-190l16 57c-48 -46 -99.333 -69 -154 -69zM311.998 145c36 0 67.333 15.332 94 45.999
s40 66.667 40 108c0 28.667 -8.66699 51.834 -26 69.501s-40 26.5 -68 26.5c-36 0 -67 -15.167 -93 -45.5s-39 -66.833 -39 -109.5c0 -28.667 8.5 -51.667 25.5 -69s39.167 -26 66.5 -26z" />
    <glyph glyph-name="e" unicode="e" horiz-adv-x="601" 
d="M286 -13c-79.333 0 -142.167 21.668 -188.5 65.001s-69.5 101.666 -69.5 174.999c0 84.667 30.333 160.167 91 226.5s138.667 99.5 234 99.5c75.333 0 132.5 -21.5 171.5 -64.5s58.5 -96.167 58.5 -159.5c0 -36 -7 -73 -21 -111h-359
c4.66699 -59.333 38.334 -89 101.001 -89c37.333 0 75.666 14.333 114.999 43l88 -104c-62 -54 -135.667 -81 -221 -81zM215.999 315.001h192.999c3.33301 10 5 19.667 5 29c0 20 -6.33301 36.5 -19 49.5s-31 19.5 -55 19.5c-26.667 0 -51.167 -8.5 -73.5 -25.5
s-39.166 -41.167 -50.499 -72.5z" />
    <glyph glyph-name="f" unicode="f" horiz-adv-x="418" 
d="M13 0l104.999 388h-64l41 153h63l3 11c16.667 65.333 43.834 112.5 81.501 141.5s87.834 43.5 150.501 43.5c44.667 0 85 -6 121 -18l-35 -133c-22.667 8 -44 12 -64 12c-36.667 0 -59.334 -17 -68.001 -51l-3 -9h122l-40 -150h-118l-105 -388h-190z" />
    <glyph glyph-name="g" unicode="g" horiz-adv-x="668" 
d="M238 -162c-51.333 0 -102.834 6.83301 -154.501 20.5s-95.167 31.5 -130.5 53.5l85 119c61.333 -37.333 125.333 -56 192 -56c48 0 85.333 13.333 112 40c19.333 19.333 34.333 48.333 45 87l3 12c-49.333 -44 -104 -66 -164 -66c-52 0 -97.167 16.833 -135.5 50.5
s-57.5 79.167 -57.5 136.5c0 85.333 27.5 159.5 82.5 222.5s122.167 94.5 201.5 94.5c72.667 0 127.334 -29.333 164.001 -88l20 77h190l-115 -430c-23.333 -88 -55.333 -152.667 -96 -194c-52 -52.667 -132.667 -79 -242 -79zM309.999 185c36 0 66.3311 13.167 90.998 39.5
s37 56.833 37 91.5c0 25.333 -8.16699 46 -24.5 62s-38.166 24 -65.499 24c-35.333 0 -65.166 -13.5 -89.499 -40.5s-36.5 -58.167 -36.5 -93.5c0 -25.333 8 -45.5 24 -60.5s37.333 -22.5 64 -22.5z" />
    <glyph glyph-name="h" unicode="h" horiz-adv-x="632" 
d="M-21 0l194.999 730h190l-67 -251c46.667 49.333 98.334 74 155.001 74c48.667 0 87 -14.5 115 -43.5s42 -68.5 42 -118.5c0 -24.667 -5.33301 -57 -16 -97l-78 -294h-190l76 283c4 14 6 28.667 6 44c0 38 -20 57 -60 57c-49.333 0 -83 -32.667 -101 -98l-77 -286h-190z
" />
    <glyph glyph-name="i" unicode="i" horiz-adv-x="301" 
d="M-17 0l145 541h190l-145 -541h-190zM138 590l38 140h198l-38 -140h-198z" />
    <glyph glyph-name="j" unicode="j" horiz-adv-x="303" 
d="M-53 -163c-28.667 0 -55.6641 2.33203 -80.9971 6.99902l33 126c8 -2 16 -3 24 -3c19.333 0 34.666 5.83301 45.999 17.5s20.666 31.834 27.999 60.501l133 496h190l-140 -520c-18.667 -68.667 -46.334 -116.5 -83.001 -143.5s-86.667 -40.5 -150 -40.5zM139.003 589.999
l38 140h198l-38 -140h-198z" />
    <glyph glyph-name="k" unicode="k" horiz-adv-x="599" 
d="M-21 0l196 730h190l-96 -357l181 168h229l-249 -222l106 -319h-203l-58 192l-71 -63l-35 -129h-190z" />
    <glyph glyph-name="l" unicode="l" horiz-adv-x="301" 
d="M-17 0l196 730h190l-196 -730h-190z" />
    <glyph glyph-name="m" unicode="m" horiz-adv-x="968" 
d="M-21 0l145.001 540.998h190l-16 -60c46.667 48 97 72 151 72c71.333 0 118.333 -31.333 141 -94c55.333 62.667 120.666 94 195.999 94c50.667 0 90 -14.333 118 -43s42 -68 42 -118c0 -25.333 -5.33301 -58 -16 -98l-79 -294h-189l75 283
c4.66699 16.667 7 31.334 7 44.001c0 38 -19.333 57 -58 57c-48 0 -81 -32.667 -99 -98l-77 -286h-190l76 283c4.66699 16.667 7 31.334 7 44.001c0 38 -19.333 57 -58 57c-48 0 -81 -32.667 -99 -98l-77 -286h-190z" />
    <glyph glyph-name="n" unicode="n" horiz-adv-x="630" 
d="M-21 0l144.999 541h190l-17 -62c46.667 49.333 98.334 74 155.001 74c48.667 0 87 -14.5 115 -43.5s42 -68.5 42 -118.5c0 -24.667 -5.33301 -57 -16 -97l-78 -294h-190l76 283c4 14 6 28.667 6 44c0 38 -20 57 -60 57c-49.333 0 -83 -32.667 -101 -98l-77 -286h-190z
" />
    <glyph glyph-name="o" unicode="o" horiz-adv-x="644" 
d="M295 -13c-80.667 0 -145.001 23.668 -193.001 71.001s-72 107.666 -72 180.999c0 83.333 30.833 156.5 92.5 219.5s136.834 94.5 225.501 94.5c81.333 0 146 -23.667 194 -71s72 -107.333 72 -180c0 -84 -30.833 -157.5 -92.5 -220.5s-137.167 -94.5 -226.5 -94.5z
M305.999 145.001c36 0 66 15.5 90 46.5s36 65.5 36 103.5c0 30 -8.66699 54.167 -26 72.5s-40 27.5 -68 27.5c-36 0 -66 -15.5 -90 -46.5s-36 -65.167 -36 -102.5c0 -30.667 8.66699 -55.167 26 -73.5s40 -27.5 68 -27.5z" />
    <glyph glyph-name="p" unicode="p" horiz-adv-x="672" 
d="M-64 -160l188.003 701h190l-16 -57c47.333 46 98.666 69 153.999 69s101.166 -20 137.499 -60s54.5 -94 54.5 -162c0 -96 -28.833 -177.167 -86.5 -243.5s-125.834 -99.5 -204.501 -99.5c-72 0 -126.667 28.667 -164 86l-63 -234h-190zM320.003 146
c36 0 67 15.168 93 45.501s39 66.833 39 109.5c0 28.667 -8.5 51.667 -25.5 69s-39.167 26 -66.5 26c-36 0 -67.333 -15.333 -94 -46s-40 -66.667 -40 -108c0 -28.667 8.66699 -51.834 26 -69.501s40 -26.5 68 -26.5z" />
    <glyph glyph-name="q" unicode="q" horiz-adv-x="672" 
d="M310 -180l63.998 237c-48 -46 -99.333 -69 -154 -69c-55.333 0 -101.166 20 -137.499 60s-54.5 94 -54.5 162c0 96 28.833 177.167 86.5 243.5s125.834 99.5 204.501 99.5c72 0 126.667 -28.667 164 -86l20 74h190l-193 -721h-190zM311.998 145
c36 0 67.333 15.332 94 45.999s40 66.667 40 108c0 28.667 -8.66699 51.834 -26 69.501s-40 26.5 -68 26.5c-36 0 -67 -15.167 -93 -45.5s-39 -66.833 -39 -109.5c0 -28.667 8.5 -51.667 25.5 -69s39.167 -26 66.5 -26z" />
    <glyph glyph-name="r" unicode="r" horiz-adv-x="430" 
d="M-21 0l144.999 541h190l-29 -109c56.667 84 124.334 123.333 203.001 118l-54 -200h-16c-104 0 -172.333 -62.333 -205 -187l-44 -163h-190z" />
    <glyph glyph-name="s" unicode="s" horiz-adv-x="511" 
d="M230 -13c-51.333 0 -100.501 8.33496 -147.501 25.002s-86.833 39.667 -119.5 69l94 111c25.333 -22.667 54.5 -40.5 87.5 -53.5s63.833 -19.5 92.5 -19.5c32 0 48 11 48 33c0 9.33301 -5.33301 17.333 -16 24s-30 15.667 -58 27c-50 20 -87.833 41.5 -113.5 64.5
s-38.5 54.167 -38.5 93.5c0 55.333 21.167 101.166 63.5 137.499s99.833 54.5 172.5 54.5c46 0 89.833 -7.33301 131.5 -22s75.834 -32.667 102.501 -54l-91 -114c-52 38.667 -103 58 -153 58c-31.333 0 -47 -10.333 -47 -31c0 -8.66699 5.33301 -16.5 16 -23.5
s30.334 -16.167 59.001 -27.5c48.667 -19.333 86 -40.333 112 -63s39 -54.334 39 -95.001c0 -55.333 -20.333 -101.5 -61 -138.5s-98.334 -55.5 -173.001 -55.5z" />
    <glyph glyph-name="t" unicode="t" horiz-adv-x="430" 
d="M214 -11c-54 0 -94.833 11.166 -122.5 33.499s-41.5 53.833 -41.5 94.5c0 22.667 3.33301 46.334 10 71.001l54 200h-64l41 153h64l37 137h190l-37 -137h126l-41 -153h-126l-46 -170c-3.33301 -14.667 -5 -25.667 -5 -33c0 -22.667 14.333 -34 43 -34c20 0 44 5 72 15
l-42 -158c-36 -12.667 -73.333 -19 -112 -19z" />
    <glyph glyph-name="u" unicode="u" horiz-adv-x="632" 
d="M183 -12c-48.667 0 -87 14.5 -115 43.5s-42 68.5 -42 118.5c0 26.667 5 59 15 97l79 294h190l-76 -283c-4.66699 -16 -7 -30.667 -7 -44c0 -38 20.333 -57 61 -57c50 0 83.333 32.667 100 98l77 286h190l-144 -541h-190l16 62c-46.667 -49.333 -98 -74 -154 -74z" />
    <glyph glyph-name="v" unicode="v" horiz-adv-x="621" 
d="M151 -4l-70 545h195l20 -315l187 315h202l-361 -545h-173z" />
    <glyph glyph-name="w" unicode="w" horiz-adv-x="859" 
d="M103 -4l-19 545h183l-2 -272l157 274h156l11 -276l146 274h185l-313 -545h-162l-13 281l-165 -281h-164z" />
    <glyph glyph-name="x" unicode="x" horiz-adv-x="589" 
d="M-62 0l259 281l-112 260h197l47 -131l109 131h214l-252 -274l114 -267h-197l-49 137l-116 -137h-214z" />
    <glyph glyph-name="y" unicode="y" horiz-adv-x="622" 
d="M94 -163c-56 0 -104 13 -144 39l85 139c24.667 -18 49.667 -27 75 -27c18 0 33.667 6.66699 47 20l-70 533h193l22 -325l182 325h200l-335 -538c-38 -60.667 -76.5 -103.5 -115.5 -128.5s-85.5 -37.5 -139.5 -37.5z" />
    <glyph glyph-name="z" unicode="z" horiz-adv-x="558" 
d="M-40 0l34 125l318 265h-238l40 151h486l-33 -125l-319 -265h249l-40 -151h-497z" />
    <glyph glyph-name="braceleft" unicode="{" horiz-adv-x="497" 
d="M322 -141c-78 8.66699 -133 25.1729 -165 49.5059s-48 56.5 -48 96.5c0 21.333 5.33301 48.666 16 81.999c10.667 34.667 16 60 16 76c0 20.667 -6 36 -18 46s-35.333 15 -70 15h-26l33 126h27c52 0 87.667 10.667 107 32s33.333 61.666 42 120.999
c5.33301 36 13.5 66.333 24.5 91s28 46.5 51 65.5s53.667 33 92 42s85.833 13.5 142.5 13.5l12 -112c-60.667 -4.66699 -101.667 -18.5 -123 -41.5s-35 -59.5 -41 -109.5c-6.66699 -58 -21.667 -100.333 -45 -127s-64 -43.334 -122 -50.001c57.333 -11.333 86 -43 86 -95
c0 -18 -4.66699 -41.667 -14 -71c-10 -28.667 -15 -51.334 -15 -68.001c0 -20.667 6.33301 -36.834 19 -48.501s36.667 -21.834 72 -30.501z" />
    <glyph glyph-name="bar" unicode="|" horiz-adv-x="356" 
d="M122 -128v926h145v-926h-145z" />
    <glyph glyph-name="braceright" unicode="}" horiz-adv-x="497" 
d="M-40 -141l-12 111.994c60.667 4.66699 101.5 18.5 122.5 41.5s34.833 59.5 41.5 109.5c7.33301 58 22.5 100.333 45.5 127s63.5 43.334 121.5 50.001c-57.333 11.333 -86 43 -86 95c0 18 4.66699 41.667 14 71c10 28.667 15 51.334 15 68.001
c0 20.667 -6.33301 36.834 -19 48.501s-36.667 21.834 -72 30.501l53 103c78 -8.66699 133 -25.167 165 -49.5s48 -56.5 48 -96.5c0 -21.333 -5.33301 -48.666 -16 -81.999c-10.667 -34.667 -16 -60 -16 -76c0 -20.667 6 -36 18 -46s35.333 -15 70 -15h26l-33 -126h-27
c-52 0 -87.833 -10.667 -107.5 -32s-33.5 -61.666 -41.5 -120.999c-5.33301 -36 -13.5 -66.333 -24.5 -91s-28 -46.5 -51 -65.5s-53.667 -33 -92 -42s-85.833 -13.5 -142.5 -13.5z" />
    <glyph glyph-name="asciitilde" unicode="~" horiz-adv-x="505" 
d="M129 216l-87.999 41c18.667 46 42 81.5 70 106.5s58 37.5 90 37.5c28 0 56 -10.333 84 -31c23.333 -16 40.666 -24 51.999 -24c22.667 0 44.667 19 66 57l89 -41c-19.333 -46 -43 -81.5 -71 -106.5s-58 -37.5 -90 -37.5c-28 0 -56 10.333 -84 31
c-22.667 16 -40 24 -52 24c-22.667 0 -44.667 -19 -66 -57z" />
    <glyph glyph-name="uni00A0" unicode="&#xa0;" horiz-adv-x="277" 
 />
    <glyph glyph-name="exclamdown" unicode="&#xa1;" horiz-adv-x="322" 
d="M-20 0l24 85l162 387h99l-45 -387l-23 -85h-217zM132 530l46 170h197l-45 -170h-198z" />
    <glyph glyph-name="cent" unicode="&#xa2;" horiz-adv-x="585" 
d="M258 -6l-110 -0.00195312l42 107c-43.333 20 -76.833 48.667 -100.5 86s-35.5 81.333 -35.5 132c0 90 31.167 166 93.5 228s139.833 93 232.5 93h21l26 66h110l-35 -89c57.333 -26 96.333 -68.333 117 -127l-137 -71c-9.33301 24.667 -23.333 43.334 -42 56.001l-98 -254
c36 2.66699 70.333 20.334 103 53.001l108 -96c-58.667 -68.667 -134.667 -103 -228 -103c-15.333 0 -27 0.666992 -35 2zM253 246.998l97 247.001c-38 -3.33301 -69.167 -21.833 -93.5 -55.5s-36.5 -70.834 -36.5 -111.501c0 -36 11 -62.667 33 -80z" />
    <glyph glyph-name="sterling" unicode="&#xa3;" horiz-adv-x="631" 
d="M-22 0l30.999 116.001l82 28l33 121h-75l36 135h75l15 57c20 77.333 50.667 136.666 92 177.999c51.333 51.333 120 77 206 77c47.333 0 89.833 -9.66699 127.5 -29s66.834 -44.333 87.501 -75l-131 -118c-25.333 34 -56 51 -92 51c-24.667 0 -46 -9 -64 -27
c-15.333 -14 -27.333 -37 -36 -69l-13 -45h209l-36 -135h-208l-30 -111h285l-41 -154h-553z" />
    <glyph glyph-name="currency" unicode="&#xa4;" horiz-adv-x="677" 
d="M385 -14c-76 0 -139.168 21.498 -189.501 64.498s-79.166 100.5 -86.499 172.5h-90l28 104h67c4 22.667 7.66699 39.334 11 50.001h-65l28 104h65c30 70.667 73.667 127.167 131 169.5s125.666 63.5 204.999 63.5c118.667 0 200.667 -49 246 -147l-142 -95
c-14 26 -30.167 45 -48.5 57s-41.833 18 -70.5 18c-51.333 0 -92.333 -22.667 -123 -68h169l-27 -101h-180c-5.33301 -17.333 -9.33301 -34.666 -12 -51.999h178l-27 -101h-154c10.667 -48 42.334 -72 95.001 -72c44.667 0 86.667 19.667 126 59l111 -119
c-67.333 -71.333 -149 -107 -245 -107z" />
    <glyph glyph-name="yen" unicode="&#xa5;" horiz-adv-x="718" 
d="M190 0l25 93h-184l32 120h184l13 50h-184l32 120h140l-122 317h205l73 -230l188 230h229l-291 -317h138l-32 -120h-184l-13 -50h183l-32 -120h-184l-25 -93h-191z" />
    <glyph glyph-name="brokenbar" unicode="&#xa6;" horiz-adv-x="222" 
d="M33 -89v250h157v-250h-157zM33 411v250h157v-250h-157z" />
    <glyph glyph-name="section" unicode="&#xa7;" horiz-adv-x="625" 
d="M280 -12c-52.667 0 -101.829 8.50195 -147.496 25.502s-82.167 39.833 -109.5 68.5l99 105c21.333 -19.333 47 -35.666 77 -48.999s58.333 -20 85 -20c35.333 0 53 10 53 30c0 9.33301 -6.5 17.166 -19.5 23.499s-39.167 15.5 -78.5 27.5
c-56.667 16.667 -100.334 35.5 -131.001 56.5s-46 48.833 -46 83.5c0 67.333 42 110.666 126 129.999c-22 23.333 -33 50.666 -33 81.999c0 46 21.167 84.667 63.5 116s98.833 47 169.5 47c52.667 0 102 -8.5 148 -25.5s82.333 -39.833 109 -68.5l-98 -105
c-20.667 19.333 -46.334 35.5 -77.001 48.5s-59.334 19.5 -86.001 19.5c-34.667 0 -52 -9.66699 -52 -29c0 -9.33301 6.5 -17.333 19.5 -24s38.833 -15.667 77.5 -27c57.333 -17.333 101.166 -36.5 131.499 -57.5s45.5 -48.833 45.5 -83.5c0 -66 -41.667 -109.333 -125 -130
c21.333 -23.333 32 -50.333 32 -81c0 -46.667 -21 -85.5 -63 -116.5s-98.667 -46.5 -170 -46.5zM404.005 292.002c14.667 0 26.833 3.33203 36.5 9.99902s14.5 15.334 14.5 26.001c0 11.333 -6.5 20.833 -19.5 28.5s-35.5 16.834 -67.5 27.501
c-50.667 17.333 -85 26 -103 26c-14.667 0 -27 -3.33301 -37 -10s-15 -15.667 -15 -27c0 -10.667 6.5 -19.834 19.5 -27.501s35.5 -17.167 67.5 -28.5c49.333 -16.667 84 -25 104 -25z" />
    <glyph glyph-name="dieresis" unicode="&#xa8;" 
d="M142 587l39 143h166l-39 -143h-166zM361 587l39 143h166l-39 -143h-166z" />
    <glyph glyph-name="copyright" unicode="&#xa9;" horiz-adv-x="830" 
d="M437 -14c-100.667 0 -186 35.667 -256 107s-105 157 -105 257c0 99.333 35.333 184.833 106 256.5s156.334 107.5 257.001 107.5s186 -35.667 256 -107s105 -157 105 -257c0 -99.333 -35.333 -184.833 -106 -256.5s-156.334 -107.5 -257.001 -107.5zM437 26
c90.667 0 166.834 31.833 228.501 95.5s92.5 140.5 92.5 230.5c0 89.333 -30.667 165.333 -92 228s-137 94 -227 94c-90.667 0 -166.834 -31.833 -228.501 -95.5s-92.5 -140.5 -92.5 -230.5c0 -89.333 30.667 -165.333 92 -228s137 -94 227 -94zM443 156
c-58 0 -106.166 19.001 -144.499 57.001s-57.5 85.333 -57.5 142c0 55.333 19.167 102.333 57.5 141s87.166 58 146.499 58c70 0 124 -26.333 162 -79l-81 -64c-23.333 30 -51 45 -83 45c-26 0 -47.667 -9.83301 -65 -29.5s-26 -43.834 -26 -72.501
c0 -28 8.66699 -51.667 26 -71s39 -29 65 -29c31.333 0 60 15.333 86 46l81 -58c-41.333 -57.333 -97 -86 -167 -86z" />
    <glyph glyph-name="ordfeminine" unicode="&#xaa;" horiz-adv-x="395" 
d="M45 270l21 77h288l-21 -77h-288zM182 398c-24.667 0 -44.665 7.33301 -59.998 22s-23 34 -23 58c0 32.667 12 58.5 36 77.5s55.667 28.5 95 28.5c24.667 0 49.667 -4.33301 75 -13l2 6c2 4.66699 3 10 3 16c0 22 -17 33 -51 33c-28 0 -54.333 -4.66699 -79 -14l-15 75
c34 12.667 72.667 19 116 19s76.166 -8.33301 98.499 -25s33.5 -40 33.5 -70c0 -14 -2 -28.333 -6 -43l-44 -164h-104l9 32c-26.667 -25.333 -55.334 -38 -86.001 -38zM231.002 462c13.333 0 25.8311 5.16699 37.498 15.5s19.167 22.833 22.5 37.5l3 11
c-15.333 4.66699 -28.666 7 -39.999 7c-15.333 0 -28 -4 -38 -12s-15 -18.333 -15 -31c0 -8 2.83301 -14.667 8.5 -20s12.834 -8 21.501 -8z" />
    <glyph glyph-name="guillemotleft" unicode="&#xab;" horiz-adv-x="630" 
d="M138 28l-108 224l13 49l215 212l105 -96l-166 -161l82 -165zM401 25l-113 235l2 8l241 237l105 -96l-171 -166l77 -155z" />
    <glyph glyph-name="logicalnot" unicode="&#xac;" horiz-adv-x="640" 
d="M382 231l46 172h-317l45 167h491l-91 -339h-174z" />
    <glyph glyph-name="uni00AD" unicode="&#xad;" horiz-adv-x="417" 
d="M33 229l45 167h328l-44 -167h-329z" />
    <glyph glyph-name="registered" unicode="&#xae;" horiz-adv-x="830" 
d="M437 -14c-100.667 0 -186 35.667 -256 107s-105 157 -105 257c0 99.333 35.333 184.833 106 256.5s156.334 107.5 257.001 107.5s186 -35.667 256 -107s105 -157 105 -257c0 -99.333 -35.333 -184.833 -106 -256.5s-156.334 -107.5 -257.001 -107.5zM437 26
c90.667 0 166.834 31.833 228.501 95.5s92.5 140.5 92.5 230.5c0 89.333 -30.667 165.333 -92 228s-137 94 -227 94c-90.667 0 -166.834 -31.833 -228.501 -95.5s-92.5 -140.5 -92.5 -230.5c0 -89.333 30.667 -165.333 92 -228s137 -94 227 -94zM278 168v385h180
c57.333 0 100.333 -14.333 129 -43c22.667 -22.667 34 -52.667 34 -90c0 -56.667 -26.667 -96 -80 -118l92 -134h-123l-80 117h-44v-117h-108zM386 368h69c38.667 0 58 15.667 58 47c0 30.667 -19.333 46 -58 46h-69v-93z" />
    <glyph glyph-name="macron" unicode="&#xaf;" 
d="M149 592l30 116h376l-31 -116h-375z" />
    <glyph glyph-name="degree" unicode="&#xb0;" horiz-adv-x="452" 
d="M260 346c-51.333 0 -92.5 15.332 -123.5 45.999s-46.5 69.334 -46.5 116.001c0 55.333 19.333 102.666 58 141.999s85.667 59 141 59c51.333 0 92.5 -15.5 123.5 -46.5s46.5 -69.5 46.5 -115.5c0 -55.333 -19.333 -102.666 -58 -141.999s-85.667 -59 -141 -59z
M265 439.999c26 0 47.333 10.5 64 31.5s25 44.5 25 70.5c0 21.333 -6.33301 38.833 -19 52.5s-29.334 20.5 -50.001 20.5c-26.667 0 -48.167 -10.5 -64.5 -31.5s-24.5 -44.5 -24.5 -70.5c0 -21.333 6.33301 -38.833 19 -52.5s29.334 -20.5 50.001 -20.5z" />
    <glyph glyph-name="plusminus" unicode="&#xb1;" horiz-adv-x="640" 
d="M-8 -16l42 157h491l-42 -157h-491zM209 206l35 132h-169l45 168h169l36 132h174l-36 -132h169l-45 -168h-169l-35 -132h-174z" />
    <glyph glyph-name="twosuperior" unicode="&#xb2;" 
d="M0 0v700h500v-700h-500zM81 49h340l-171 255zM50 95l170 254l-170 256v-510zM451 95v510l-172 -256zM250 395l171 255h-340z" />
    <glyph glyph-name="threesuperior" unicode="&#xb3;" 
d="M0 0v700h500v-700h-500zM81 49h340l-171 255zM50 95l170 254l-170 256v-510zM451 95v510l-172 -256zM250 395l171 255h-340z" />
    <glyph glyph-name="acute" unicode="&#xb4;" 
d="M200 587l155 185l173 -57l-181 -128h-147z" />
    <glyph glyph-name="mu" unicode="&#xb5;" horiz-adv-x="634" 
d="M-64 -160l187.999 701h190l-79 -293c-8 -28.667 -7 -51 3 -67s26.667 -24 50 -24s44.333 8 63 24s32 38.333 40 67l79 293h190l-145 -541h-190l19 74c-52 -50.667 -103 -76 -153 -76c-5.33301 0 -12.666 0.666992 -21.999 2l-43 -160h-190z" />
    <glyph glyph-name="paragraph" unicode="&#xb6;" horiz-adv-x="597" 
d="M270 0l56 211.999c-171.333 8.66699 -257 78.334 -257 209.001c0 84 30.5 151.5 91.5 202.5s148.167 76.5 261.5 76.5h230l-188 -700h-194z" />
    <glyph glyph-name="periodcentered" unicode="&#xb7;" horiz-adv-x="302" 
d="M35 215l52 195h198l-53 -195h-197z" />
    <glyph glyph-name="cedilla" unicode="&#xb8;" 
d="M160 -173l-139 64l125 124h129z" />
    <glyph glyph-name="onesuperior" unicode="&#xb9;" 
d="M0 0v700h500v-700h-500zM81 49h340l-171 255zM50 95l170 254l-170 256v-510zM451 95v510l-172 -256zM250 395l171 255h-340z" />
    <glyph glyph-name="ordmasculine" unicode="&#xba;" horiz-adv-x="402" 
d="M48 270l21 77h283l-20 -77h-284zM249 395c-44.667 0 -80.333 13.167 -107 39.5s-40 59.833 -40 100.5c0 45.333 17 85.166 51 119.499s75.667 51.5 125 51.5c44 0 79.333 -13.167 106 -39.5s40 -59.833 40 -100.5c0 -45.333 -17 -85.166 -51 -119.499
s-75.333 -51.5 -124 -51.5zM254.001 482c20 0 36.5 8.33203 49.5 24.999s19.5 35.334 19.5 56.001c0 16.667 -4.66699 30.167 -14 40.5s-21.666 15.5 -36.999 15.5c-20 0 -36.5 -8.33301 -49.5 -25s-19.5 -35.667 -19.5 -57c0 -16 4.66699 -29.167 14 -39.5
s21.666 -15.5 36.999 -15.5z" />
    <glyph glyph-name="guillemotright" unicode="&#xbb;" horiz-adv-x="630" 
d="M99 37l-105 95l171 166l-77 155l142 63l112 -234l-2 -8zM372 28l-105 96l166 161l-82 165l142 63l108 -224l-14 -49z" />
    <glyph glyph-name="onequarter" unicode="&#xbc;" 
d="M0 0v700h500v-700h-500zM81 49h340l-171 255zM50 95l170 254l-170 256v-510zM451 95v510l-172 -256zM250 395l171 255h-340z" />
    <glyph glyph-name="onehalf" unicode="&#xbd;" 
d="M0 0v700h500v-700h-500zM81 49h340l-171 255zM50 95l170 254l-170 256v-510zM451 95v510l-172 -256zM250 395l171 255h-340z" />
    <glyph glyph-name="threequarters" unicode="&#xbe;" 
d="M0 0v700h500v-700h-500zM81 49h340l-171 255zM50 95l170 254l-170 256v-510zM451 95v510l-172 -256zM250 395l171 255h-340z" />
    <glyph glyph-name="questiondown" unicode="&#xbf;" horiz-adv-x="540" 
d="M240 -10c-68.667 0 -123.667 17.333 -165 52s-62 78 -62 130c0 58 21 106.833 63 146.5s105 66.167 189 79.5l30 74h120l-17 -168l-10 -8c-120.667 -10 -181 -39 -181 -87c0 -33.333 22 -50 66 -50s89 18 135 54l78 -135c-66.667 -58.667 -148.667 -88 -246 -88zM273 530
l46 170h198l-46 -170h-198z" />
    <glyph glyph-name="Agrave" unicode="&#xc0;" horiz-adv-x="775" 
d="M-74 0l487 705h190l109 -705h-204l-17 125h-270l-84 -125h-211zM319 276h156l-25 201zM458 747l-111 128l179 57l55 -185h-123z" />
    <glyph glyph-name="Aacute" unicode="&#xc1;" horiz-adv-x="775" 
d="M-74 0l487 705h190l109 -705h-204l-17 125h-270l-84 -125h-211zM319 276h156l-25 201zM425 747l155 185l173 -57l-181 -128h-147z" />
    <glyph glyph-name="Acircumflex" unicode="&#xc2;" horiz-adv-x="775" 
d="M-74 0l487 705h190l109 -705h-204l-17 125h-270l-84 -125h-211zM319 276h156l-25 201zM299 747l172 165h154l84 -165h-113l-68 61l-101 -61h-128z" />
    <glyph glyph-name="Atilde" unicode="&#xc3;" horiz-adv-x="775" 
d="M-74 0l487 705h190l109 -705h-204l-17 125h-270l-84 -125h-211zM319 276h156l-25 201zM390 744l-89 40.001c18.667 46 42.167 81.5 70.5 106.5s58.5 37.5 90.5 37.5c27.333 0 55.333 -10 84 -30c22.667 -16.667 39.667 -25 51 -25c22.667 0 44.667 19 66 57l89 -40
c-19.333 -46.667 -43 -82.334 -71 -107.001s-58 -37 -90 -37c-27.333 0 -55.333 10 -84 30c-24 16.667 -41.333 25 -52 25c-22 0 -43.667 -19 -65 -57z" />
    <glyph glyph-name="Adieresis" unicode="&#xc4;" horiz-adv-x="775" 
d="M-74 0l487 705h190l109 -705h-204l-17 125h-270l-84 -125h-211zM319 276h156l-25 201zM319 747l39 143h166l-39 -143h-166zM538 747l39 143h166l-39 -143h-166z" />
    <glyph glyph-name="Aring" unicode="&#xc5;" horiz-adv-x="775" 
d="M-74 0l79.499 114.999l153.5 222l173 251l70 100c-12.667 18.667 -19 39 -19 61c0 40 14.333 74.167 43 102.5s63.334 42.5 104.001 42.5c36 0 65.167 -10.667 87.5 -32s33.5 -48 33.5 -80c0 -39.333 -14.667 -72.666 -44 -99.999l105 -682h-204l-17 125h-270l-84 -125
h-211zM318.999 275.999h156l-25 201zM505.999 697.999c21.333 0 38.835 8.33301 52.502 25s20.5 36 20.5 58c0 15.333 -4.66699 28 -14 38s-22 15 -38 15c-20.667 0 -37.834 -8.5 -51.501 -25.5s-20.5 -36.167 -20.5 -57.5c0 -15.333 4.66699 -28 14 -38
s21.666 -15 36.999 -15z" />
    <glyph glyph-name="AE" unicode="&#xc6;" horiz-adv-x="1080" 
d="M-76 0l550 700h673l-44 -165h-349l-28 -106h313l-41 -153h-313l-31 -111h354l-44 -165h-543l34 125h-223l-97 -125h-211zM348 276h148l71 268h-13z" />
    <glyph glyph-name="Ccedilla" unicode="&#xc7;" horiz-adv-x="727" 
d="M291 -173l-138.998 64l113 112c-66 20 -118.167 55.167 -156.5 105.5s-57.5 111.5 -57.5 183.5c0 52 10.333 103 31 153s49.167 94.833 85.5 134.5s82.166 71.834 137.499 96.501s114.666 37 177.999 37c71.333 0 132.166 -15.833 182.499 -47.5
s85.833 -74.834 106.5 -129.501l-167 -90c-29.333 60 -76.666 90 -141.999 90c-57.333 0 -106.5 -23 -147.5 -69s-61.5 -99.667 -61.5 -161c0 -43.333 13 -78 39 -104s59.667 -39 101 -39c52.667 0 102.667 23.667 150 71l131 -116c-76.667 -85.333 -171.667 -129 -285 -131
z" />
    <glyph glyph-name="Egrave" unicode="&#xc8;" horiz-adv-x="669" 
d="M-12 0l188 700h561l-45 -165h-368l-29 -106h334l-41 -153h-334l-30 -111h374l-44 -165h-566zM428 747l-111 128l179 57l55 -185h-123z" />
    <glyph glyph-name="Eacute" unicode="&#xc9;" horiz-adv-x="669" 
d="M-12 0l188 700h561l-45 -165h-368l-29 -106h334l-41 -153h-334l-30 -111h374l-44 -165h-566zM370 747l155 185l173 -57l-181 -128h-147z" />
    <glyph glyph-name="Ecircumflex" unicode="&#xca;" horiz-adv-x="669" 
d="M-12 0l188 700h561l-45 -165h-368l-29 -106h334l-41 -153h-334l-30 -111h374l-44 -165h-566zM260 747l172 165h154l84 -165h-113l-68 61l-101 -61h-128z" />
    <glyph glyph-name="Edieresis" unicode="&#xcb;" horiz-adv-x="669" 
d="M-12 0l188 700h561l-45 -165h-368l-29 -106h334l-41 -153h-334l-30 -111h374l-44 -165h-566zM273 747l39 143h166l-39 -143h-166zM492 747l39 143h166l-39 -143h-166z" />
    <glyph glyph-name="Igrave" unicode="&#xcc;" horiz-adv-x="325" 
d="M-7 0l188 700h194l-188 -700h-194zM240 747l-111 128l179 57l55 -185h-123z" />
    <glyph glyph-name="Iacute" unicode="&#xcd;" horiz-adv-x="325" 
d="M-7 0l188 700h194l-188 -700h-194zM199 747l155 185l173 -57l-181 -128h-147z" />
    <glyph glyph-name="Icircumflex" unicode="&#xce;" horiz-adv-x="325" 
d="M-7 0l188 700h194l-188 -700h-194zM76 747l172 165h154l84 -165h-113l-68 61l-101 -61h-128z" />
    <glyph glyph-name="Idieresis" unicode="&#xcf;" horiz-adv-x="325" 
d="M-7 0l188 700h194l-188 -700h-194zM97 747l39 143h166l-39 -143h-166zM316 747l39 143h166l-39 -143h-166z" />
    <glyph glyph-name="Eth" unicode="&#xd0;" horiz-adv-x="800" 
d="M34 0l73 275.999h-84l42 153h84l73 271h221c122.667 0 211.667 -27 267 -81s83 -125.333 83 -214c0 -115.333 -43.333 -211.666 -130 -288.999s-204 -116 -352 -116h-277zM267 165.999h66c78 0 142.167 20.833 192.5 62.5s75.5 95.5 75.5 161.5
c0 95.333 -59 143 -177 143h-58l-28 -104h114l-41 -153h-114z" />
    <glyph glyph-name="Ntilde" unicode="&#xd1;" horiz-adv-x="781" 
d="M-12 0l188 700h181l181 -389l105 389h193l-188 -700h-170l-189 403l-108 -403h-193zM388 744l-89 40.001c18.667 46 42.167 81.5 70.5 106.5s58.5 37.5 90.5 37.5c27.333 0 55.333 -10 84 -30c22.667 -16.667 39.667 -25 51 -25c22.667 0 44.667 19 66 57l89 -40
c-19.333 -46.667 -43 -82.334 -71 -107.001s-58 -37 -90 -37c-27.333 0 -55.333 10 -84 30c-24 16.667 -41.333 25 -52 25c-22 0 -43.667 -19 -65 -57z" />
    <glyph glyph-name="Ograve" unicode="&#xd2;" horiz-adv-x="813" 
d="M386 -13c-98.667 0 -179 29.833 -241 89.5s-93 134.5 -93 224.5c0 52.667 10.5 104 31.5 154s49.5 94 85.5 132s80.167 68.5 132.5 91.5s108.166 34.5 167.499 34.5c98.667 0 179 -29.833 241 -89.5s93 -134.5 93 -224.5c0 -52.667 -10.5 -104 -31.5 -154
s-49.5 -94 -85.5 -132s-80.167 -68.5 -132.5 -91.5s-108.166 -34.5 -167.499 -34.5zM403 161c58.667 0 107 23.167 145 69.5s57 97.5 57 153.5c0 46 -13.5 83.333 -40.5 112s-64.5 43 -112.5 43c-58 0 -106.167 -23.333 -144.5 -70s-57.5 -97.667 -57.5 -153
c0 -46 13.5 -83.333 40.5 -112s64.5 -43 112.5 -43zM455 747l-111 128l179 57l55 -185h-123z" />
    <glyph glyph-name="Oacute" unicode="&#xd3;" horiz-adv-x="813" 
d="M386 -13c-98.667 0 -179 29.833 -241 89.5s-93 134.5 -93 224.5c0 52.667 10.5 104 31.5 154s49.5 94 85.5 132s80.167 68.5 132.5 91.5s108.166 34.5 167.499 34.5c98.667 0 179 -29.833 241 -89.5s93 -134.5 93 -224.5c0 -52.667 -10.5 -104 -31.5 -154
s-49.5 -94 -85.5 -132s-80.167 -68.5 -132.5 -91.5s-108.166 -34.5 -167.499 -34.5zM403 161c58.667 0 107 23.167 145 69.5s57 97.5 57 153.5c0 46 -13.5 83.333 -40.5 112s-64.5 43 -112.5 43c-58 0 -106.167 -23.333 -144.5 -70s-57.5 -97.667 -57.5 -153
c0 -46 13.5 -83.333 40.5 -112s64.5 -43 112.5 -43zM394 747l155 185l173 -57l-181 -128h-147z" />
    <glyph glyph-name="Ocircumflex" unicode="&#xd4;" horiz-adv-x="813" 
d="M386 -13c-98.667 0 -179 29.833 -241 89.5s-93 134.5 -93 224.5c0 52.667 10.5 104 31.5 154s49.5 94 85.5 132s80.167 68.5 132.5 91.5s108.166 34.5 167.499 34.5c98.667 0 179 -29.833 241 -89.5s93 -134.5 93 -224.5c0 -52.667 -10.5 -104 -31.5 -154
s-49.5 -94 -85.5 -132s-80.167 -68.5 -132.5 -91.5s-108.166 -34.5 -167.499 -34.5zM403 161c58.667 0 107 23.167 145 69.5s57 97.5 57 153.5c0 46 -13.5 83.333 -40.5 112s-64.5 43 -112.5 43c-58 0 -106.167 -23.333 -144.5 -70s-57.5 -97.667 -57.5 -153
c0 -46 13.5 -83.333 40.5 -112s64.5 -43 112.5 -43zM296 747l172 165h154l84 -165h-113l-68 61l-101 -61h-128z" />
    <glyph glyph-name="Otilde" unicode="&#xd5;" horiz-adv-x="813" 
d="M386 -13c-98.667 0 -179 29.833 -241 89.5s-93 134.5 -93 224.5c0 52.667 10.5 104 31.5 154s49.5 94 85.5 132s80.167 68.5 132.5 91.5s108.166 34.5 167.499 34.5c98.667 0 179 -29.833 241 -89.5s93 -134.5 93 -224.5c0 -52.667 -10.5 -104 -31.5 -154
s-49.5 -94 -85.5 -132s-80.167 -68.5 -132.5 -91.5s-108.166 -34.5 -167.499 -34.5zM403 161c58.667 0 107 23.167 145 69.5s57 97.5 57 153.5c0 46 -13.5 83.333 -40.5 112s-64.5 43 -112.5 43c-58 0 -106.167 -23.333 -144.5 -70s-57.5 -97.667 -57.5 -153
c0 -46 13.5 -83.333 40.5 -112s64.5 -43 112.5 -43zM390 744l-89 40.001c18.667 46 42.167 81.5 70.5 106.5s58.5 37.5 90.5 37.5c27.333 0 55.333 -10 84 -30c22.667 -16.667 39.667 -25 51 -25c22.667 0 44.667 19 66 57l89 -40c-19.333 -46.667 -43 -82.334 -71 -107.001
s-58 -37 -90 -37c-27.333 0 -55.333 10 -84 30c-24 16.667 -41.333 25 -52 25c-22 0 -43.667 -19 -65 -57z" />
    <glyph glyph-name="Odieresis" unicode="&#xd6;" horiz-adv-x="813" 
d="M386 -13c-98.667 0 -179 29.833 -241 89.5s-93 134.5 -93 224.5c0 52.667 10.5 104 31.5 154s49.5 94 85.5 132s80.167 68.5 132.5 91.5s108.166 34.5 167.499 34.5c98.667 0 179 -29.833 241 -89.5s93 -134.5 93 -224.5c0 -52.667 -10.5 -104 -31.5 -154
s-49.5 -94 -85.5 -132s-80.167 -68.5 -132.5 -91.5s-108.166 -34.5 -167.499 -34.5zM403 161c58.667 0 107 23.167 145 69.5s57 97.5 57 153.5c0 46 -13.5 83.333 -40.5 112s-64.5 43 -112.5 43c-58 0 -106.167 -23.333 -144.5 -70s-57.5 -97.667 -57.5 -153
c0 -46 13.5 -83.333 40.5 -112s64.5 -43 112.5 -43zM318 747l39 143h166l-39 -143h-166zM537 747l39 143h166l-39 -143h-166z" />
    <glyph glyph-name="multiply" unicode="&#xd7;" horiz-adv-x="640" 
d="M161 6l-108 109l158 158l-158 158l108 109l158 -159l159 159l108 -109l-158 -158l158 -158l-108 -109l-159 158z" />
    <glyph glyph-name="Oslash" unicode="&#xd8;" horiz-adv-x="813" 
d="M386 -13c-84 0 -154.667 22 -212 66l-63 -58h-147l141 128c-35.333 52 -53 111.333 -53 178c0 52.667 10.5 104 31.5 154s49.5 94 85.5 132s80.167 68.5 132.5 91.5s108.166 34.5 167.499 34.5c85.333 0 158.333 -23.333 219 -70l68 62h147l-149 -135
c32.667 -49.333 49 -106.333 49 -171c0 -52.667 -10.5 -104 -31.5 -154s-49.5 -94 -85.5 -132s-80.167 -68.5 -132.5 -91.5s-108.166 -34.5 -167.499 -34.5zM403 155c59.333 0 108.833 24 148.5 72s59.5 100.667 59.5 158c0 18 -2.66699 35.667 -8 53l-287 -262
c26 -14 55 -21 87 -21zM255 253l292 265c-24.667 18 -56.334 27 -95.001 27c-59.333 0 -108.666 -24 -147.999 -72s-59 -100.667 -59 -158c0 -23.333 3.33301 -44 10 -62z" />
    <glyph glyph-name="Ugrave" unicode="&#xd9;" horiz-adv-x="760" 
d="M342 -13c-90 0 -159.667 21.5 -209 64.5s-74 103.167 -74 180.5c0 34 5.33301 71.333 16 112l96 356h196l-99 -370c-6.66699 -24.667 -10 -46.667 -10 -66c0 -32 9.5 -57 28.5 -75s45.833 -27 80.5 -27c38 0 69.333 12.333 94 37c25.333 24 45 62.667 59 116l104 385h196
l-111 -414c-24.667 -91.333 -61 -161 -109 -209c-60 -60 -146 -90 -258 -90zM453 745l-111 128l179 57l55 -185h-123z" />
    <glyph glyph-name="Uacute" unicode="&#xda;" horiz-adv-x="760" 
d="M342 -13c-90 0 -159.667 21.5 -209 64.5s-74 103.167 -74 180.5c0 34 5.33301 71.333 16 112l96 356h196l-99 -370c-6.66699 -24.667 -10 -46.667 -10 -66c0 -32 9.5 -57 28.5 -75s45.833 -27 80.5 -27c38 0 69.333 12.333 94 37c25.333 24 45 62.667 59 116l104 385h196
l-111 -414c-24.667 -91.333 -61 -161 -109 -209c-60 -60 -146 -90 -258 -90zM406 745l155 185l173 -57l-181 -128h-147z" />
    <glyph glyph-name="Ucircumflex" unicode="&#xdb;" horiz-adv-x="760" 
d="M342 -13c-90 0 -159.667 21.5 -209 64.5s-74 103.167 -74 180.5c0 34 5.33301 71.333 16 112l96 356h196l-99 -370c-6.66699 -24.667 -10 -46.667 -10 -66c0 -32 9.5 -57 28.5 -75s45.833 -27 80.5 -27c38 0 69.333 12.333 94 37c25.333 24 45 62.667 59 116l104 385h196
l-111 -414c-24.667 -91.333 -61 -161 -109 -209c-60 -60 -146 -90 -258 -90zM294 747l172 165h154l84 -165h-113l-68 61l-101 -61h-128z" />
    <glyph glyph-name="Udieresis" unicode="&#xdc;" horiz-adv-x="760" 
d="M342 -13c-90 0 -159.667 21.5 -209 64.5s-74 103.167 -74 180.5c0 34 5.33301 71.333 16 112l96 356h196l-99 -370c-6.66699 -24.667 -10 -46.667 -10 -66c0 -32 9.5 -57 28.5 -75s45.833 -27 80.5 -27c38 0 69.333 12.333 94 37c25.333 24 45 62.667 59 116l104 385h196
l-111 -414c-24.667 -91.333 -61 -161 -109 -209c-60 -60 -146 -90 -258 -90zM314 747l39 143h166l-39 -143h-166zM533 747l39 143h166l-39 -143h-166z" />
    <glyph glyph-name="Yacute" unicode="&#xdd;" horiz-adv-x="677" 
d="M159 0l73 271l-141 429h209l69 -262l211 262h232l-391 -450l-67 -250h-195zM357 747l155 185l173 -57l-181 -128h-147z" />
    <glyph glyph-name="Thorn" unicode="&#xde;" horiz-adv-x="682" 
d="M-12 0l188 700h195l-26 -100h37c110 0 189.333 -24.333 238 -73c36 -36.667 54 -83.667 54 -141c0 -86 -31.5 -154.167 -94.5 -204.5s-146.167 -75.5 -249.5 -75.5h-119l-28 -106h-195zM253 260l72.999 -0.000976562c46.667 0 83.334 9.83301 110.001 29.5
s40 45.834 40 78.501c0 20 -6.66699 36.667 -20 50c-17.333 17.333 -45 26 -83 26h-71z" />
    <glyph glyph-name="germandbls" unicode="&#xdf;" horiz-adv-x="639" 
d="M235 -3l36 138.002c47.333 0 82.166 8.66699 104.499 26s33.5 39.333 33.5 66c0 42 -31.333 65.667 -94 71l27 101c80.667 16.667 121 55 121 115c0 20.667 -6.16699 37 -18.5 49s-27.5 18 -45.5 18c-48 0 -82 -36.667 -102 -110l-126 -471h-190l129 479
c21.333 80 52.666 141.333 93.999 184c50 50 117.333 75 202 75c70.667 0 127.334 -18 170.001 -54s64 -83.333 64 -142c0 -48.667 -13.333 -90.334 -40 -125.001s-65.667 -59.334 -117 -74.001c70.667 -26 106 -70.667 106 -134c0 -66 -30.167 -119.5 -90.5 -160.5
s-148.166 -58.167 -263.499 -51.5z" />
    <glyph glyph-name="agrave" unicode="&#xe0;" horiz-adv-x="597" 
d="M152 -11c-44.667 0 -81 13.332 -109 39.999s-42 62.334 -42 107.001c0 58.667 21.667 105.167 65 139.5s101 51.5 173 51.5c45.333 0 91 -7 137 -21l2 7c3.33301 14.667 5 25.667 5 33c0 38.667 -31 58 -93 58c-52 0 -100.667 -9 -146 -27l-27 138
c62.667 22 133.667 33 213 33c80 0 140.167 -15 180.5 -45s60.5 -72.333 60.5 -127c0 -24 -3.66699 -50 -11 -78l-80 -298h-187l15 58c-49.333 -46 -101.333 -69 -156 -69zM240 105.999c24 0 46.668 9.33301 68.001 28s35.666 42 42.999 70l5 18c-24 8 -47.667 12 -71 12
c-30 0 -54 -7 -72 -21s-27 -33 -27 -57c0 -15.333 5 -27.5 15 -36.5s23 -13.5 39 -13.5zM334.001 586.999l-111 128l179 57l55 -185h-123z" />
    <glyph glyph-name="aacute" unicode="&#xe1;" horiz-adv-x="597" 
d="M152 -11c-44.667 0 -81 13.332 -109 39.999s-42 62.334 -42 107.001c0 58.667 21.667 105.167 65 139.5s101 51.5 173 51.5c45.333 0 91 -7 137 -21l2 7c3.33301 14.667 5 25.667 5 33c0 38.667 -31 58 -93 58c-52 0 -100.667 -9 -146 -27l-27 138
c62.667 22 133.667 33 213 33c80 0 140.167 -15 180.5 -45s60.5 -72.333 60.5 -127c0 -24 -3.66699 -50 -11 -78l-80 -298h-187l15 58c-49.333 -46 -101.333 -69 -156 -69zM240 105.999c24 0 46.668 9.33301 68.001 28s35.666 42 42.999 70l5 18c-24 8 -47.667 12 -71 12
c-30 0 -54 -7 -72 -21s-27 -33 -27 -57c0 -15.333 5 -27.5 15 -36.5s23 -13.5 39 -13.5zM279.001 586.999l155 185l173 -57l-181 -128h-147z" />
    <glyph glyph-name="acircumflex" unicode="&#xe2;" horiz-adv-x="597" 
d="M152 -11c-44.667 0 -81 13.332 -109 39.999s-42 62.334 -42 107.001c0 58.667 21.667 105.167 65 139.5s101 51.5 173 51.5c45.333 0 91 -7 137 -21l2 7c3.33301 14.667 5 25.667 5 33c0 38.667 -31 58 -93 58c-52 0 -100.667 -9 -146 -27l-27 138
c62.667 22 133.667 33 213 33c80 0 140.167 -15 180.5 -45s60.5 -72.333 60.5 -127c0 -24 -3.66699 -50 -11 -78l-80 -298h-187l15 58c-49.333 -46 -101.333 -69 -156 -69zM240 105.999c24 0 46.668 9.33301 68.001 28s35.666 42 42.999 70l5 18c-24 8 -47.667 12 -71 12
c-30 0 -54 -7 -72 -21s-27 -33 -27 -57c0 -15.333 5 -27.5 15 -36.5s23 -13.5 39 -13.5zM176.001 586.999l172 165h154l84 -165h-113l-68 61l-101 -61h-128z" />
    <glyph glyph-name="atilde" unicode="&#xe3;" horiz-adv-x="597" 
d="M152 -11c-44.667 0 -81 13.332 -109 39.999s-42 62.334 -42 107.001c0 58.667 21.667 105.167 65 139.5s101 51.5 173 51.5c45.333 0 91 -7 137 -21l2 7c3.33301 14.667 5 25.667 5 33c0 38.667 -31 58 -93 58c-52 0 -100.667 -9 -146 -27l-27 138
c62.667 22 133.667 33 213 33c80 0 140.167 -15 180.5 -45s60.5 -72.333 60.5 -127c0 -24 -3.66699 -50 -11 -78l-80 -298h-187l15 58c-49.333 -46 -101.333 -69 -156 -69zM240 105.999c24 0 46.668 9.33301 68.001 28s35.666 42 42.999 70l5 18c-24 8 -47.667 12 -71 12
c-30 0 -54 -7 -72 -21s-27 -33 -27 -57c0 -15.333 5 -27.5 15 -36.5s23 -13.5 39 -13.5zM257.001 583.999l-89 40.001c18.667 46 42.167 81.5 70.5 106.5s58.5 37.5 90.5 37.5c27.333 0 55.333 -10 84 -30c22.667 -16.667 39.667 -25 51 -25c22.667 0 44.667 19 66 57
l89 -40c-19.333 -46.667 -43 -82.334 -71 -107.001s-58 -37 -90 -37c-27.333 0 -55.333 10 -84 30c-24 16.667 -41.333 25 -52 25c-22 0 -43.667 -19 -65 -57z" />
    <glyph glyph-name="adieresis" unicode="&#xe4;" horiz-adv-x="597" 
d="M152 -11c-44.667 0 -81 13.332 -109 39.999s-42 62.334 -42 107.001c0 58.667 21.667 105.167 65 139.5s101 51.5 173 51.5c45.333 0 91 -7 137 -21l2 7c3.33301 14.667 5 25.667 5 33c0 38.667 -31 58 -93 58c-52 0 -100.667 -9 -146 -27l-27 138
c62.667 22 133.667 33 213 33c80 0 140.167 -15 180.5 -45s60.5 -72.333 60.5 -127c0 -24 -3.66699 -50 -11 -78l-80 -298h-187l15 58c-49.333 -46 -101.333 -69 -156 -69zM240 105.999c24 0 46.668 9.33301 68.001 28s35.666 42 42.999 70l5 18c-24 8 -47.667 12 -71 12
c-30 0 -54 -7 -72 -21s-27 -33 -27 -57c0 -15.333 5 -27.5 15 -36.5s23 -13.5 39 -13.5zM190.001 587.999l39 143h166l-39 -143h-166zM409.001 587.999l39 143h166l-39 -143h-166z" />
    <glyph glyph-name="aring" unicode="&#xe5;" horiz-adv-x="597" 
d="M152 -11c-44.667 0 -81 13.332 -109 39.999s-42 62.334 -42 107.001c0 58.667 21.667 105.167 65 139.5s101 51.5 173 51.5c45.333 0 91 -7 137 -21l2 7c3.33301 14.667 5 25.667 5 33c0 38.667 -31 58 -93 58c-52 0 -100.667 -9 -146 -27l-27 138
c62.667 22 133.667 33 213 33c80 0 140.167 -15 180.5 -45s60.5 -72.333 60.5 -127c0 -24 -3.66699 -50 -11 -78l-80 -298h-187l15 58c-49.333 -46 -101.333 -69 -156 -69zM240 105.999c24 0 46.668 9.33301 68.001 28s35.666 42 42.999 70l5 18c-24 8 -47.667 12 -71 12
c-30 0 -54 -7 -72 -21s-27 -33 -27 -57c0 -15.333 5 -27.5 15 -36.5s23 -13.5 39 -13.5zM402.001 591.999c-36 0 -65 10.667 -87 32s-33 48 -33 80c0 40 14.333 74.167 43 102.5s63.334 42.5 104.001 42.5c36 0 65 -10.667 87 -32s33 -48 33 -80
c0 -39.333 -14.333 -73.333 -43 -102s-63.334 -43 -104.001 -43zM405.001 652.999c21.333 0 38.833 8.33301 52.5 25s20.5 36 20.5 58c0 14.667 -4.83301 27.167 -14.5 37.5s-22.167 15.5 -37.5 15.5c-21.333 0 -38.833 -8.5 -52.5 -25.5s-20.5 -36.167 -20.5 -57.5
c0 -15.333 4.66699 -28 14 -38s22 -15 38 -15z" />
    <glyph glyph-name="ae" unicode="&#xe6;" horiz-adv-x="931" 
d="M174 -11c-53.333 0 -95.499 13.168 -126.499 39.501s-46.5 62.166 -46.5 107.499c0 58.667 21.667 105.167 65 139.5s101 51.5 173 51.5c45.333 0 91 -7 137 -21l2 7c3.33301 14.667 5 25.667 5 33c0 38.667 -31 58 -93 58c-52 0 -100.667 -9 -146 -27l-27 138
c62.667 22 133.667 33 213 33c82.667 0 141.334 -21.333 176.001 -64c56 46 117.667 69 185 69c72 0 127 -21.5 165 -64.5s57 -96.167 57 -159.5c0 -36 -7 -73 -21 -111h-359c4.66699 -59.333 38.334 -89 101.001 -89c37.333 0 75.666 14.333 114.999 43l88 -104
c-60.667 -54 -135.334 -81 -224.001 -81c-92 0 -160.667 32.667 -206 98c-64.667 -64 -142.334 -96 -233.001 -96zM250.001 105.001c44 0 85 17.999 123 53.999c-4.66699 18 -7.66699 37.667 -9 59c-24.667 10.667 -51 16 -79 16c-30 0 -54 -7 -72 -21s-27 -33 -27 -57
c0 -15.333 5.66699 -27.666 17 -36.999s27 -14 47 -14zM546.001 315h192.999c3.33301 10 5 19.667 5 29c0 20 -6.33301 36.5 -19 49.5s-31 19.5 -55 19.5c-26.667 0 -51.167 -8.5 -73.5 -25.5s-39.166 -41.167 -50.499 -72.5z" />
    <glyph glyph-name="ccedilla" unicode="&#xe7;" horiz-adv-x="563" 
d="M195 -173l-138.998 64l116 115c-44.667 18 -79.834 45.833 -105.501 83.5s-38.5 82.5 -38.5 134.5c0 90.667 31.667 168 95 232s140 96 230 96c60 0 109.5 -13.667 148.5 -41s66.167 -63 81.5 -107l-149 -77c-19.333 45.333 -50.333 68 -93 68
c-35.333 0 -65.833 -16.333 -91.5 -49s-38.5 -70 -38.5 -112c0 -26.667 7.66699 -48.334 23 -65.001s34.666 -25 57.999 -25c36.667 0 71.334 16.667 104.001 50l116 -101c-58.667 -67.333 -131.334 -102.666 -218.001 -105.999z" />
    <glyph glyph-name="egrave" unicode="&#xe8;" horiz-adv-x="601" 
d="M286 -13c-79.333 0 -142.167 21.668 -188.5 65.001s-69.5 101.666 -69.5 174.999c0 84.667 30.333 160.167 91 226.5s138.667 99.5 234 99.5c75.333 0 132.5 -21.5 171.5 -64.5s58.5 -96.167 58.5 -159.5c0 -36 -7 -73 -21 -111h-359
c4.66699 -59.333 38.334 -89 101.001 -89c37.333 0 75.666 14.333 114.999 43l88 -104c-62 -54 -135.667 -81 -221 -81zM215.999 315.001h192.999c3.33301 10 5 19.667 5 29c0 20 -6.33301 36.5 -19 49.5s-31 19.5 -55 19.5c-26.667 0 -51.167 -8.5 -73.5 -25.5
s-39.166 -41.167 -50.499 -72.5zM329.998 587.001l-111 128l179 57l55 -185h-123z" />
    <glyph glyph-name="eacute" unicode="&#xe9;" horiz-adv-x="601" 
d="M286 -13c-79.333 0 -142.167 21.668 -188.5 65.001s-69.5 101.666 -69.5 174.999c0 84.667 30.333 160.167 91 226.5s138.667 99.5 234 99.5c75.333 0 132.5 -21.5 171.5 -64.5s58.5 -96.167 58.5 -159.5c0 -36 -7 -73 -21 -111h-359
c4.66699 -59.333 38.334 -89 101.001 -89c37.333 0 75.666 14.333 114.999 43l88 -104c-62 -54 -135.667 -81 -221 -81zM215.999 315.001h192.999c3.33301 10 5 19.667 5 29c0 20 -6.33301 36.5 -19 49.5s-31 19.5 -55 19.5c-26.667 0 -51.167 -8.5 -73.5 -25.5
s-39.166 -41.167 -50.499 -72.5zM273.998 587.001l155 185l173 -57l-181 -128h-147z" />
    <glyph glyph-name="ecircumflex" unicode="&#xea;" horiz-adv-x="601" 
d="M286 -13c-79.333 0 -142.167 21.668 -188.5 65.001s-69.5 101.666 -69.5 174.999c0 84.667 30.333 160.167 91 226.5s138.667 99.5 234 99.5c75.333 0 132.5 -21.5 171.5 -64.5s58.5 -96.167 58.5 -159.5c0 -36 -7 -73 -21 -111h-359
c4.66699 -59.333 38.334 -89 101.001 -89c37.333 0 75.666 14.333 114.999 43l88 -104c-62 -54 -135.667 -81 -221 -81zM215.999 315.001h192.999c3.33301 10 5 19.667 5 29c0 20 -6.33301 36.5 -19 49.5s-31 19.5 -55 19.5c-26.667 0 -51.167 -8.5 -73.5 -25.5
s-39.166 -41.167 -50.499 -72.5zM167.998 587.001l172 165h154l84 -165h-113l-68 61l-101 -61h-128z" />
    <glyph glyph-name="edieresis" unicode="&#xeb;" horiz-adv-x="601" 
d="M286 -13c-79.333 0 -142.167 21.668 -188.5 65.001s-69.5 101.666 -69.5 174.999c0 84.667 30.333 160.167 91 226.5s138.667 99.5 234 99.5c75.333 0 132.5 -21.5 171.5 -64.5s58.5 -96.167 58.5 -159.5c0 -36 -7 -73 -21 -111h-359
c4.66699 -59.333 38.334 -89 101.001 -89c37.333 0 75.666 14.333 114.999 43l88 -104c-62 -54 -135.667 -81 -221 -81zM215.999 315.001h192.999c3.33301 10 5 19.667 5 29c0 20 -6.33301 36.5 -19 49.5s-31 19.5 -55 19.5c-26.667 0 -51.167 -8.5 -73.5 -25.5
s-39.166 -41.167 -50.499 -72.5zM184.998 587.001l39 143h166l-39 -143h-166zM403.998 587.001l39 143h166l-39 -143h-166z" />
    <glyph glyph-name="igrave" unicode="&#xec;" horiz-adv-x="301" 
d="M-17 0l145 541h190l-145 -541h-190zM198 587l-111 128l179 57l55 -185h-123z" />
    <glyph glyph-name="iacute" unicode="&#xed;" horiz-adv-x="301" 
d="M-17 0l145 541h190l-145 -541h-190zM138 587l155 185l173 -57l-181 -128h-147z" />
    <glyph glyph-name="icircumflex" unicode="&#xee;" horiz-adv-x="301" 
d="M-17 0l145 541h190l-145 -541h-190zM24 587l172 165h154l84 -165h-113l-68 61l-101 -61h-128z" />
    <glyph glyph-name="idieresis" unicode="&#xef;" horiz-adv-x="301" 
d="M-17 0l145 541h190l-145 -541h-190zM41 587l39 143h166l-39 -143h-166zM260 587l39 143h166l-39 -143h-166z" />
    <glyph glyph-name="eth" unicode="&#xf0;" horiz-adv-x="642" 
d="M288 -12c-78 0 -141.167 21.833 -189.5 65.5s-72.5 99.5 -72.5 167.5c0 71.333 25.667 132.333 77 183s116 76 194 76c50.667 0 94.334 -13.667 131.001 -41l-55 119l-131 -45l-41 89l133 42l-39 86h181l15 -34l121 41l41 -89l-124 -39l39 -89
c29.333 -65.333 44 -131.666 44 -198.999c0 -96.667 -29.333 -176.334 -88 -239.001s-137.334 -94 -236.001 -94zM301 146c34.667 0 63.333 11.6689 86 35.002s34 50.666 34 81.999c0 26 -8.66699 47.333 -26 64s-39.333 25 -66 25c-34 0 -62.5 -11.333 -85.5 -34
s-34.5 -50 -34.5 -82c0 -26.667 8.83301 -48.334 26.5 -65.001s39.5 -25 65.5 -25z" />
    <glyph glyph-name="ntilde" unicode="&#xf1;" horiz-adv-x="630" 
d="M-21 0l144.999 541h190l-17 -62c46.667 49.333 98.334 74 155.001 74c48.667 0 87 -14.5 115 -43.5s42 -68.5 42 -118.5c0 -24.667 -5.33301 -57 -16 -97l-78 -294h-190l76 283c4 14 6 28.667 6 44c0 38 -20 57 -60 57c-49.333 0 -83 -32.667 -101 -98l-77 -286h-190z
M267.999 584l-89 40.001c18.667 46 42.167 81.5 70.5 106.5s58.5 37.5 90.5 37.5c27.333 0 55.333 -10 84 -30c22.667 -16.667 39.667 -25 51 -25c22.667 0 44.667 19 66 57l89 -40c-19.333 -46.667 -43 -82.334 -71 -107.001s-58 -37 -90 -37c-27.333 0 -55.333 10 -84 30
c-24 16.667 -41.333 25 -52 25c-22 0 -43.667 -19 -65 -57z" />
    <glyph glyph-name="ograve" unicode="&#xf2;" horiz-adv-x="644" 
d="M295 -13c-80.667 0 -145.001 23.668 -193.001 71.001s-72 107.666 -72 180.999c0 83.333 30.833 156.5 92.5 219.5s136.834 94.5 225.501 94.5c81.333 0 146 -23.667 194 -71s72 -107.333 72 -180c0 -84 -30.833 -157.5 -92.5 -220.5s-137.167 -94.5 -226.5 -94.5z
M305.999 145.001c36 0 66 15.5 90 46.5s36 65.5 36 103.5c0 30 -8.66699 54.167 -26 72.5s-40 27.5 -68 27.5c-36 0 -66 -15.5 -90 -46.5s-36 -65.167 -36 -102.5c0 -30.667 8.66699 -55.167 26 -73.5s40 -27.5 68 -27.5zM338.999 587.001l-111 128l179 57l55 -185h-123z
" />
    <glyph glyph-name="oacute" unicode="&#xf3;" horiz-adv-x="644" 
d="M295 -13c-80.667 0 -145.001 23.668 -193.001 71.001s-72 107.666 -72 180.999c0 83.333 30.833 156.5 92.5 219.5s136.834 94.5 225.501 94.5c81.333 0 146 -23.667 194 -71s72 -107.333 72 -180c0 -84 -30.833 -157.5 -92.5 -220.5s-137.167 -94.5 -226.5 -94.5z
M305.999 145.001c36 0 66 15.5 90 46.5s36 65.5 36 103.5c0 30 -8.66699 54.167 -26 72.5s-40 27.5 -68 27.5c-36 0 -66 -15.5 -90 -46.5s-36 -65.167 -36 -102.5c0 -30.667 8.66699 -55.167 26 -73.5s40 -27.5 68 -27.5zM280.999 587.001l155 185l173 -57l-181 -128h-147z
" />
    <glyph glyph-name="ocircumflex" unicode="&#xf4;" horiz-adv-x="644" 
d="M295 -13c-80.667 0 -145.001 23.668 -193.001 71.001s-72 107.666 -72 180.999c0 83.333 30.833 156.5 92.5 219.5s136.834 94.5 225.501 94.5c81.333 0 146 -23.667 194 -71s72 -107.333 72 -180c0 -84 -30.833 -157.5 -92.5 -220.5s-137.167 -94.5 -226.5 -94.5z
M305.999 145.001c36 0 66 15.5 90 46.5s36 65.5 36 103.5c0 30 -8.66699 54.167 -26 72.5s-40 27.5 -68 27.5c-36 0 -66 -15.5 -90 -46.5s-36 -65.167 -36 -102.5c0 -30.667 8.66699 -55.167 26 -73.5s40 -27.5 68 -27.5zM171.999 587.001l172 165h154l84 -165h-113l-68 61
l-101 -61h-128z" />
    <glyph glyph-name="otilde" unicode="&#xf5;" horiz-adv-x="644" 
d="M295 -13c-80.667 0 -145.001 23.668 -193.001 71.001s-72 107.666 -72 180.999c0 83.333 30.833 156.5 92.5 219.5s136.834 94.5 225.501 94.5c81.333 0 146 -23.667 194 -71s72 -107.333 72 -180c0 -84 -30.833 -157.5 -92.5 -220.5s-137.167 -94.5 -226.5 -94.5z
M305.999 145.001c36 0 66 15.5 90 46.5s36 65.5 36 103.5c0 30 -8.66699 54.167 -26 72.5s-40 27.5 -68 27.5c-36 0 -66 -15.5 -90 -46.5s-36 -65.167 -36 -102.5c0 -30.667 8.66699 -55.167 26 -73.5s40 -27.5 68 -27.5zM258.999 584.001l-89 40.001
c18.667 46 42.167 81.5 70.5 106.5s58.5 37.5 90.5 37.5c27.333 0 55.333 -10 84 -30c22.667 -16.667 39.667 -25 51 -25c22.667 0 44.667 19 66 57l89 -40c-19.333 -46.667 -43 -82.334 -71 -107.001s-58 -37 -90 -37c-27.333 0 -55.333 10 -84 30
c-24 16.667 -41.333 25 -52 25c-22 0 -43.667 -19 -65 -57z" />
    <glyph glyph-name="odieresis" unicode="&#xf6;" horiz-adv-x="644" 
d="M295 -13c-80.667 0 -145.001 23.668 -193.001 71.001s-72 107.666 -72 180.999c0 83.333 30.833 156.5 92.5 219.5s136.834 94.5 225.501 94.5c81.333 0 146 -23.667 194 -71s72 -107.333 72 -180c0 -84 -30.833 -157.5 -92.5 -220.5s-137.167 -94.5 -226.5 -94.5z
M305.999 145.001c36 0 66 15.5 90 46.5s36 65.5 36 103.5c0 30 -8.66699 54.167 -26 72.5s-40 27.5 -68 27.5c-36 0 -66 -15.5 -90 -46.5s-36 -65.167 -36 -102.5c0 -30.667 8.66699 -55.167 26 -73.5s40 -27.5 68 -27.5zM186.999 587.001l39 143h166l-39 -143h-166z
M405.999 587.001l39 143h166l-39 -143h-166z" />
    <glyph glyph-name="divide" unicode="&#xf7;" horiz-adv-x="640" 
d="M166 34l47 175h178l-47 -175h-178zM75 271l45 167h491l-45 -167h-491zM291 500l47 175h178l-47 -175h-178z" />
    <glyph glyph-name="oslash" unicode="&#xf8;" horiz-adv-x="644" 
d="M295 -12c-66.667 0 -123.001 17 -169.001 51l-49 -44h-133l122 109c-24 38.667 -36 84.667 -36 138c0 82 30.833 154.333 92.5 217s136.834 94 225.501 94c68.667 0 126 -17.333 172 -52l50 45h133l-124 -111c23.333 -38.667 35 -84 35 -136c0 -82 -31 -154.333 -93 -217
s-137.333 -94 -226 -94zM303.999 138c38.667 0 71 16.333 97 49s39 69 39 109c0 6 -0.666992 13.667 -2 23l-187 -168c16 -8.66699 33.667 -13 53 -13zM205.999 219l189 169c-14.667 9.33301 -33 14 -55 14c-38.667 0 -71 -16.167 -97 -48.5s-39 -68.5 -39 -108.5
c0 -5.33301 0.666992 -14 2 -26z" />
    <glyph glyph-name="ugrave" unicode="&#xf9;" horiz-adv-x="632" 
d="M183 -12c-48.667 0 -87 14.5 -115 43.5s-42 68.5 -42 118.5c0 26.667 5 59 15 97l79 294h190l-76 -283c-4.66699 -16 -7 -30.667 -7 -44c0 -38 20.333 -57 61 -57c50 0 83.333 32.667 100 98l77 286h190l-144 -541h-190l16 62c-46.667 -49.333 -98 -74 -154 -74zM366 587
l-111 128l179 57l55 -185h-123z" />
    <glyph glyph-name="uacute" unicode="&#xfa;" horiz-adv-x="632" 
d="M183 -12c-48.667 0 -87 14.5 -115 43.5s-42 68.5 -42 118.5c0 26.667 5 59 15 97l79 294h190l-76 -283c-4.66699 -16 -7 -30.667 -7 -44c0 -38 20.333 -57 61 -57c50 0 83.333 32.667 100 98l77 286h190l-144 -541h-190l16 62c-46.667 -49.333 -98 -74 -154 -74zM297 587
l155 185l173 -57l-181 -128h-147z" />
    <glyph glyph-name="ucircumflex" unicode="&#xfb;" horiz-adv-x="632" 
d="M183 -12c-48.667 0 -87 14.5 -115 43.5s-42 68.5 -42 118.5c0 26.667 5 59 15 97l79 294h190l-76 -283c-4.66699 -16 -7 -30.667 -7 -44c0 -38 20.333 -57 61 -57c50 0 83.333 32.667 100 98l77 286h190l-144 -541h-190l16 62c-46.667 -49.333 -98 -74 -154 -74zM190 587
l172 165h154l84 -165h-113l-68 61l-101 -61h-128z" />
    <glyph glyph-name="udieresis" unicode="&#xfc;" horiz-adv-x="632" 
d="M183 -12c-48.667 0 -87 14.5 -115 43.5s-42 68.5 -42 118.5c0 26.667 5 59 15 97l79 294h190l-76 -283c-4.66699 -16 -7 -30.667 -7 -44c0 -38 20.333 -57 61 -57c50 0 83.333 32.667 100 98l77 286h190l-144 -541h-190l16 62c-46.667 -49.333 -98 -74 -154 -74zM208 587
l39 143h166l-39 -143h-166zM427 587l39 143h166l-39 -143h-166z" />
    <glyph glyph-name="yacute" unicode="&#xfd;" horiz-adv-x="622" 
d="M94 -163c-56 0 -104 13 -144 39l85 139c24.667 -18 49.667 -27 75 -27c18 0 33.667 6.66699 47 20l-70 533h193l22 -325l182 325h200l-335 -538c-38 -60.667 -76.5 -103.5 -115.5 -128.5s-85.5 -37.5 -139.5 -37.5zM299 587l155 185l173 -57l-181 -128h-147z" />
    <glyph glyph-name="thorn" unicode="&#xfe;" horiz-adv-x="672" 
d="M-64 -160l238.003 890h190l-66 -246c47.333 46 98.666 69 153.999 69s101.166 -20 137.499 -60s54.5 -94 54.5 -162c0 -96 -28.833 -177.167 -86.5 -243.5s-125.834 -99.5 -204.501 -99.5c-72 0 -126.667 28.667 -164 86l-63 -234h-190zM320.003 146
c36 0 67 15.168 93 45.501s39 66.833 39 109.5c0 28.667 -8.5 51.667 -25.5 69s-39.167 26 -66.5 26c-36 0 -67.333 -15.333 -94 -46s-40 -66.667 -40 -108c0 -28.667 8.66699 -51.834 26 -69.501s40 -26.5 68 -26.5z" />
    <glyph glyph-name="ydieresis" unicode="&#xff;" horiz-adv-x="622" 
d="M94 -163c-56 0 -104 13 -144 39l85 139c24.667 -18 49.667 -27 75 -27c18 0 33.667 6.66699 47 20l-70 533h193l22 -325l182 325h200l-335 -538c-38 -60.667 -76.5 -103.5 -115.5 -128.5s-85.5 -37.5 -139.5 -37.5zM195 587l39 143h166l-39 -143h-166zM414 587l39 143
h166l-39 -143h-166z" />
    <glyph glyph-name="dotlessi" unicode="&#x131;" horiz-adv-x="301" 
d="M-17 0l145 541h190l-145 -541h-190z" />
    <glyph glyph-name="Lslash" unicode="&#x141;" horiz-adv-x="662" 
d="M35 0l66 245l-82 -22l47 173l82 22l75 282h192l-60 -225l192 53l-46 -174l-192 -52l-36 -132h334l-46 -170h-526z" />
    <glyph glyph-name="lslash" unicode="&#x142;" horiz-adv-x="398" 
d="M32 0l71 263l-88 -23l46 170l88 24l79 296h190l-65 -242l88 24l-46 -171l-88 -24l-85 -317h-190z" />
    <glyph glyph-name="OE" unicode="&#x152;" horiz-adv-x="1080" 
d="M401 0c-122.667 0 -214.667 30.667 -276 92c-49.333 49.333 -74 117 -74 203c0 107.333 38.333 199.333 115 276c86 86 208.333 129 367 129h614l-44 -165h-349l-28 -106h313l-41 -153h-313l-31 -111h354l-44 -165h-563zM422 172h42.001l96 356h-49
c-86 0 -152.667 -23.667 -200 -71c-40 -40 -60 -88.667 -60 -146c0 -40.667 11.667 -72.667 35 -96c27.333 -28.667 72.666 -43 135.999 -43z" />
    <glyph glyph-name="oe" unicode="&#x153;" horiz-adv-x="1002" 
d="M296 -12c-81.333 0 -145.997 23.833 -193.997 71.5s-72 108.5 -72 182.5c0 82.667 30.667 155.167 92 217.5s136.666 93.5 225.999 93.5c87.333 0 152.666 -30 195.999 -90c58 60 128.667 90 212 90c74 0 130.333 -21.5 169 -64.5s58 -96.167 58 -159.5
c0 -36 -7 -73 -21 -111h-359c4.66699 -59.333 38.667 -89 102 -89c36.667 0 74.667 14.333 114 43l88 -104c-60.667 -54 -135.334 -81 -224.001 -81c-82 0 -144 28.333 -186 85c-56 -56 -123 -84 -201 -84zM305.003 146c36.667 0 67 15 91 45s36 64.333 36 103
c0 30 -8.66699 54.333 -26 73s-40 28 -68 28c-36 0 -66 -15.167 -90 -45.5s-36 -64.5 -36 -102.5c0 -30 8.5 -54.333 25.5 -73s39.5 -28 67.5 -28zM616.003 315h194.001c2.66699 8 4 17.667 4 29c0 20 -6.33301 36.5 -19 49.5s-30.667 19.5 -54 19.5
c-26.667 0 -51.334 -8.5 -74.001 -25.5s-39.667 -41.167 -51 -72.5z" />
    <glyph glyph-name="Scaron" unicode="&#x160;" horiz-adv-x="645" 
d="M302 -12c-137.333 0 -245.667 42.667 -325 128l125 129c68.667 -63.333 140.667 -95 216 -95c23.333 0 42.333 4.66699 57 14s22 22 22 38c0 14 -7.33301 26 -22 36s-46.334 24.333 -95.001 43c-61.333 23.333 -107 49.333 -137 78s-45 67 -45 115
c0 69.333 28 126.333 84 171s127 67 213 67c118.667 0 214.334 -34.667 287.001 -104l-120 -134c-59.333 51.333 -121 77 -185 77c-22.667 0 -41 -4.66699 -55 -14s-21 -21.333 -21 -36c0 -13.333 7 -24.333 21 -33s46 -23 96 -43c60 -22.667 105.333 -48.667 136 -78
s46 -68.333 46 -117c0 -72 -27.833 -130.333 -83.5 -175s-127.167 -67 -214.5 -67zM358.999 747l-84 165h113l68 -61l101 61h128l-172 -165h-154z" />
    <glyph glyph-name="scaron" unicode="&#x161;" horiz-adv-x="511" 
d="M230 -13c-51.333 0 -100.501 8.33496 -147.501 25.002s-86.833 39.667 -119.5 69l94 111c25.333 -22.667 54.5 -40.5 87.5 -53.5s63.833 -19.5 92.5 -19.5c32 0 48 11 48 33c0 9.33301 -5.33301 17.333 -16 24s-30 15.667 -58 27c-50 20 -87.833 41.5 -113.5 64.5
s-38.5 54.167 -38.5 93.5c0 55.333 21.167 101.166 63.5 137.499s99.833 54.5 172.5 54.5c46 0 89.833 -7.33301 131.5 -22s75.834 -32.667 102.501 -54l-91 -114c-52 38.667 -103 58 -153 58c-31.333 0 -47 -10.333 -47 -31c0 -8.66699 5.33301 -16.5 16 -23.5
s30.334 -16.167 59.001 -27.5c48.667 -19.333 86 -40.333 112 -63s39 -54.334 39 -95.001c0 -55.333 -20.333 -101.5 -61 -138.5s-98.334 -55.5 -173.001 -55.5zM265.999 587.002l-84 165h113l68 -61l101 61h128l-172 -165h-154z" />
    <glyph glyph-name="Ydieresis" unicode="&#x178;" horiz-adv-x="677" 
d="M159 0l73 271l-141 429h209l69 -262l211 262h232l-391 -450l-67 -250h-195zM256 747l39 143h166l-39 -143h-166zM475 747l39 143h166l-39 -143h-166z" />
    <glyph glyph-name="Zcaron" unicode="&#x17d;" horiz-adv-x="681" 
d="M-36 0l37 141l446 395h-328l45 164h595l-38 -141l-446 -395h341l-44 -164h-608zM384 747l-84 165h113l68 -61l101 61h128l-172 -165h-154z" />
    <glyph glyph-name="zcaron" unicode="&#x17e;" horiz-adv-x="558" 
d="M-40 0l34 125l318 265h-238l40 151h486l-33 -125l-319 -265h249l-40 -151h-497zM280 587l-84 165h113l68 -61l101 61h128l-172 -165h-154z" />
    <glyph glyph-name="florin" unicode="&#x192;" horiz-adv-x="559" 
d="M55 -12c-34 0 -66.999 3.33301 -98.999 10l32 139c18 -4.66699 34.667 -7 50 -7c34 0 61.333 23.333 82 70l58 129h-63l33 144h94l35 76c24.667 56.667 56.667 98 96 124s89 39 149 39c48 0 88 -5.33301 120 -16l-32 -140c-22 8 -45.333 12 -70 12
c-43.333 0 -74.333 -22 -93 -66l-13 -29h117l-32 -144h-149l-78 -174c-26.667 -60.667 -58.834 -103.667 -96.501 -129s-84.5 -38 -140.5 -38z" />
    <glyph glyph-name="circumflex" unicode="&#x2c6;" 
d="M130 587l172 165h154l84 -165h-113l-68 61l-101 -61h-128z" />
    <glyph glyph-name="caron" unicode="&#x2c7;" 
d="M256 587l-84 165h113l68 -61l101 61h128l-172 -165h-154z" />
    <glyph glyph-name="breve" unicode="&#x2d8;" 
d="M359 586c-56 0 -99.833 14.832 -131.5 44.499s-47.5 68.834 -47.5 117.501v4h113c1.33301 -17.333 8.5 -31.333 21.5 -42s30.5 -16 52.5 -16c41.333 0 73.333 19.333 96 58h114c-14.667 -51.333 -42 -91.833 -82 -121.5s-85.333 -44.5 -136 -44.5z" />
    <glyph glyph-name="dotaccent" unicode="&#x2d9;" 
d="M250 587l39 143h170l-39 -143h-170z" />
    <glyph glyph-name="ring" unicode="&#x2da;" 
d="M356 592c-36 0 -65 10.667 -87 32s-33 48 -33 80c0 40 14.333 74.167 43 102.5s63.334 42.5 104.001 42.5c36 0 65 -10.667 87 -32s33 -48 33 -80c0 -39.333 -14.333 -73.333 -43 -102s-63.334 -43 -104.001 -43zM359 653c21.333 0 38.833 8.33301 52.5 25
s20.5 36 20.5 58c0 14.667 -4.83301 27.167 -14.5 37.5s-22.167 15.5 -37.5 15.5c-21.333 0 -38.833 -8.5 -52.5 -25.5s-20.5 -36.167 -20.5 -57.5c0 -15.333 4.66699 -28 14 -38s22 -15 38 -15z" />
    <glyph glyph-name="ogonek" unicode="&#x2db;" 
d="M194 -167c-93.333 0 -140.001 27.333 -140.001 82c0 30 15 61.667 45 95h118c-12.667 -20 -19 -37.667 -19 -53c0 -26 25.333 -39.333 76 -40l-22 -81c-21.333 -2 -40.666 -3 -57.999 -3z" />
    <glyph glyph-name="tilde" unicode="&#x2dc;" 
d="M222 584l-89 40.001c18.667 46 42.167 81.5 70.5 106.5s58.5 37.5 90.5 37.5c27.333 0 55.333 -10 84 -30c22.667 -16.667 39.667 -25 51 -25c22.667 0 44.667 19 66 57l89 -40c-19.333 -46.667 -43 -82.334 -71 -107.001s-58 -37 -90 -37c-27.333 0 -55.333 10 -84 30
c-24 16.667 -41.333 25 -52 25c-22 0 -43.667 -19 -65 -57z" />
    <glyph glyph-name="hungarumlaut" unicode="&#x2dd;" 
d="M116 588l149 184l148 -54l43 54l156 -57l-170 -127h-131l86 109l-150 -109h-131z" />
    <glyph glyph-name="Omega" unicode="&#x3a9;" horiz-adv-x="778" 
d="M-12 0l37.999 145.002h173l6 19c-38 10.667 -67.167 33.834 -87.5 69.501s-30.5 75.167 -30.5 118.5c0 58 12.167 110.5 36.5 157.5s56.5 85 96.5 114s84.833 51.333 134.5 67s100.834 23.5 153.501 23.5c78.667 0 144.667 -22 198 -66s80 -100.333 80 -169
c0 -66.667 -23.5 -132.167 -70.5 -196.5s-107.5 -103.833 -181.5 -118.5l-6 -19h172l-38 -145h-302l64 242c52 7.33301 94.667 33.166 128 77.499s50 89.166 50 134.499c0 33.333 -10.667 60.5 -32 81.5s-52 31.5 -92 31.5c-59.333 0 -109.5 -22.333 -150.5 -67
s-61.5 -94.334 -61.5 -149.001c0 -28 7.33301 -52 22 -72s36.667 -32.333 66 -37l-64 -242h-302z" />
    <glyph glyph-name="pi" unicode="&#x3c0;" 
d="M0 0v700h500v-700h-500zM81 49h340l-171 255zM50 95l170 254l-170 256v-510zM451 95v510l-172 -256zM250 395l171 255h-340z" />
    <glyph glyph-name="afii10023" unicode="&#x401;" horiz-adv-x="669" 
d="M-12 0l188 700h561l-45 -165h-368l-29 -106h334l-41 -153h-334l-30 -111h374l-44 -165h-566zM263 747l39 143h166l-39 -143h-166zM482 747l39 143h166l-39 -143h-166z" />
    <glyph glyph-name="afii10051" unicode="&#x402;" horiz-adv-x="854" 
d="M497 -67c-43.333 0 -87.667 6.33398 -133 19.001l59 162c8 -1.33301 21 -2 39 -2c36.667 0 66 8.33301 88 25s33 41.667 33 75c0 19.333 -7 35.666 -21 48.999s-33.333 20 -58 20c-48 0 -89 -12.667 -123 -38l-65 -243h-194l142 530h-180l45 170h614l-45 -170h-240
l-31 -115c58.667 30 119 45 181 45c55.333 0 100.5 -19.667 135.5 -59s52.5 -88 52.5 -146c0 -91.333 -29 -167.833 -87 -229.5s-128.667 -92.5 -212 -92.5z" />
    <glyph glyph-name="afii10052" unicode="&#x403;" horiz-adv-x="572" 
d="M-12 0l187 700h494l-45 -170h-300l-142 -530h-194zM312 747l155 185l173 -57l-181 -128h-147z" />
    <glyph glyph-name="afii10053" unicode="&#x404;" horiz-adv-x="721" 
d="M392 -14c-102.667 0 -185.169 28.1689 -247.502 84.502s-93.5 133.166 -93.5 230.499c0 70 16.667 136.167 50 198.5s82.333 113.666 147 153.999s138 60.5 220 60.5c66 0 125.167 -13.667 177.5 -41s90.833 -64.666 115.5 -111.999l-155 -109c-34 60 -82.333 90 -145 90
c-44.667 0 -83.334 -10.833 -116.001 -32.5s-57.667 -50.834 -75 -87.501h228l-35 -137h-213c6 -38 21.833 -68.833 47.5 -92.5s57.834 -35.5 96.501 -35.5c58.667 0 111.334 23.333 158.001 70l108 -126c-75.333 -76.667 -164.666 -115 -267.999 -115z" />
    <glyph glyph-name="afii10054" unicode="&#x405;" horiz-adv-x="645" 
d="M302 -12c-137.333 0 -245.667 42.667 -325 128l125 129c68.667 -63.333 140.667 -95 216 -95c23.333 0 42.333 4.66699 57 14s22 22 22 38c0 14 -7.33301 26 -22 36s-46.334 24.333 -95.001 43c-61.333 23.333 -107 49.333 -137 78s-45 67 -45 115
c0 69.333 28 126.333 84 171s127 67 213 67c118.667 0 214.334 -34.667 287.001 -104l-120 -134c-59.333 51.333 -121 77 -185 77c-22.667 0 -41 -4.66699 -55 -14s-21 -21.333 -21 -36c0 -13.333 7 -24.333 21 -33s46 -23 96 -43c60 -22.667 105.333 -48.667 136 -78
s46 -68.333 46 -117c0 -72 -27.833 -130.333 -83.5 -175s-127.167 -67 -214.5 -67z" />
    <glyph glyph-name="afii10055" unicode="&#x406;" horiz-adv-x="325" 
d="M-7 0l188 700h194l-188 -700h-194z" />
    <glyph glyph-name="afii10056" unicode="&#x407;" horiz-adv-x="325" 
d="M-7 0l188 700h194l-188 -700h-194zM86 747l39 143h166l-39 -143h-166zM305 747l39 143h166l-39 -143h-166z" />
    <glyph glyph-name="afii10057" unicode="&#x408;" horiz-adv-x="568" 
d="M197 -12c-49.333 0 -95.167 10.667 -137.5 32s-75.833 51.666 -100.5 90.999l132 115c33.333 -45.333 70.666 -68 111.999 -68c28.667 0 53.667 10.667 75 32c18.667 18.667 36.334 58.334 53.001 119.001l105 391h193l-114 -428c-25.333 -94.667 -60 -164 -104 -208
c-52 -50.667 -123.333 -76 -214 -76z" />
    <glyph glyph-name="afii10058" unicode="&#x409;" horiz-adv-x="1118" 
d="M40 -10c-48 0 -85.999 5.33691 -113.999 16.0039l52 149c12 -2.66699 26.667 -4 44 -4c14 0 25.167 1.16699 33.5 3.5s20 10.333 35 24s28.833 34.167 41.5 61.5s28.334 67.666 47.001 120.999s38.334 118.666 59.001 195.999l38 143h538l-59 -220h87
c78.667 0 141 -18.833 187 -56.5s69 -85.5 69 -143.5c0 -88 -31.167 -156.667 -93.5 -206s-142.833 -74 -241.5 -74h-330l143 535h-163l-19 -71c-22.667 -83.333 -45.667 -154.333 -69 -213s-45.333 -104.834 -66 -138.501s-43.834 -59.834 -69.501 -78.501
s-49.334 -30.667 -71.001 -36s-47.834 -8 -78.501 -8zM670.001 163.004h101c36.667 0 67.167 7.83301 91.5 23.5s36.5 39.834 36.5 72.501c0 19.333 -7.83301 35.666 -23.5 48.999s-37.167 20 -64.5 20h-96z" />
    <glyph glyph-name="afii10059" unicode="&#x40a;" horiz-adv-x="1115" 
d="M-12 0l188 700.001h195l-66 -246h247l65 246h195l-66 -246h107c74 0 132.833 -17.833 176.5 -53.5s65.5 -80.834 65.5 -135.501c0 -83.333 -29.5 -148.333 -88.5 -195s-135.167 -70 -228.5 -70h-349l80 301h-247l-79 -301h-195zM666 163.001l118 -0.000976562
c32.667 0 59.667 7 81 21s32 35.333 32 64c0 16.667 -6.83301 30.834 -20.5 42.501s-32.5 17.5 -56.5 17.5h-115z" />
    <glyph glyph-name="afii10060" unicode="&#x40b;" horiz-adv-x="854" 
d="M122 0l142 530h-180l45 170h614l-45 -170h-240l-31 -115c58.667 30 119 45 181 45c59.333 0 106.333 -14 141 -42s52 -67.333 52 -118c0 -22 -3.33301 -45 -10 -69l-62 -231h-194l40 150c6.66699 26.667 10 47.667 10 63c0 45.333 -23.667 68 -71 68
c-54 0 -98.333 -12.667 -133 -38l-65 -243h-194z" />
    <glyph glyph-name="afii10061" unicode="&#x40c;" horiz-adv-x="722" 
d="M-12 0l188 700h195l-76 -280l289 280h247l-330 -307l156 -393h-210l-101 270l-121 -111l-42 -159h-195zM367 747l155 185l173 -57l-181 -128h-147z" />
    <glyph glyph-name="afii10062" unicode="&#x40e;" horiz-adv-x="713" 
d="M153 -10c54 0 102.999 13.5 146.999 40.5s89.667 72.167 137 135.5l401 534h-219l-240 -332l-71 332h-206l135 -517c-23.333 -20 -46 -30 -68 -30c-29.333 0 -53.666 8 -72.999 24l-114 -140c44.667 -31.333 101.667 -47 171 -47zM467.999 745
c-48 0 -85.666 13.333 -112.999 40s-41.333 64.334 -42 113.001l109 19c8.66699 -40 29 -60 61 -60c33.333 0 60 20 80 60l103 -19c-14 -48.667 -38.333 -86.334 -73 -113.001s-76.334 -40 -125.001 -40z" />
    <glyph glyph-name="afii10145" unicode="&#x40f;" horiz-adv-x="751" 
d="M168 -140l38 140h-218l187 700h194l-142 -530h239l142 530h194l-187 -700h-223l-38 -140h-186z" />
    <glyph glyph-name="afii10017" unicode="&#x410;" horiz-adv-x="775" 
d="M-74 0l487 705h190l109 -705h-204l-17 125h-270l-84 -125h-211zM319 276h156l-25 201z" />
    <glyph glyph-name="afii10018" unicode="&#x411;" horiz-adv-x="700" 
d="M-12 0l187 700.001h553l-44 -165h-359l-22 -81h123c74 0 132.833 -17.833 176.5 -53.5s65.5 -80.834 65.5 -135.501c0 -83.333 -29.5 -148.333 -88.5 -195s-135.167 -70 -228.5 -70h-363zM225 163.001l132 -0.000976562c32.667 0 59.667 7 81 21s32 35.333 32 64
c0 16.667 -6.83301 30.834 -20.5 42.501s-32.5 17.5 -56.5 17.5h-129z" />
    <glyph glyph-name="afii10019" unicode="&#x412;" horiz-adv-x="714" 
d="M-12 0l188 699.998h291c89.333 0 153.833 -15.667 193.5 -47s59.5 -71.666 59.5 -120.999c0 -44.667 -13.833 -82.667 -41.5 -114s-66.167 -53 -115.5 -65c70.667 -25.333 106 -72 106 -140c0 -63.333 -27 -114.666 -81 -153.999s-133 -59 -237 -59h-363zM219 155.998
h147.001c33.333 0 59.666 6.83301 78.999 20.5s29 31.5 29 53.5c0 36.667 -28.667 55 -86 55h-134zM291.001 420.998h131c34 0 60.167 6.33301 78.5 19s27.5 30 27.5 52c0 34.667 -28 52 -84 52h-121z" />
    <glyph glyph-name="afii10020" unicode="&#x413;" horiz-adv-x="572" 
d="M-12 0l187 700h494l-45 -170h-300l-142 -530h-194z" />
    <glyph glyph-name="afii10021" unicode="&#x414;" horiz-adv-x="776" 
d="M-91 -140l81.999 310h57c40.667 54.667 75.334 112.167 104.001 172.5s59 150.5 91 270.5l23 87h543l-142 -530h79l-105 -310h-164l38 140h-382l-51 -140h-173zM255.999 170h217l99 365h-162l-21 -69c-36.667 -121.333 -81 -220 -133 -296z" />
    <glyph glyph-name="afii10022" unicode="&#x415;" horiz-adv-x="669" 
d="M-12 0l188 700h561l-45 -165h-368l-29 -106h334l-41 -153h-334l-30 -111h374l-44 -165h-566z" />
    <glyph glyph-name="afii10024" unicode="&#x416;" horiz-adv-x="1096" 
d="M-87 0l371 425l-155 275h212l143 -290l78 290h194l-75 -282l282 282h241l-325 -302l143 -398h-216l-90 263l-101 -90l-46 -173h-194l50 187l-46 81l-218 -268h-248z" />
    <glyph glyph-name="afii10025" unicode="&#x417;" horiz-adv-x="616" 
d="M257 -14c-131.333 0 -227 44.334 -287 133.001l129 112c44.667 -54 98 -81 160 -81c32.667 0 58.667 7.5 78 22.5s29 32.5 29 52.5c0 36.667 -29 55 -87 55h-72l39 146h68c33.333 0 60 6.16699 80 18.5s30 29.5 30 51.5c0 16 -6.83301 29 -20.5 39s-30.5 15 -50.5 15
c-48 0 -99.333 -22.667 -154 -68l-99 122c76.667 73.333 169 110 277 110c74 0 132.833 -17.667 176.5 -53s65.5 -78 65.5 -128c0 -92.667 -54.333 -154 -163 -184c69.333 -25.333 104 -72.333 104 -141c0 -64.667 -28.5 -117.834 -85.5 -159.501s-129.5 -62.5 -217.5 -62.5
z" />
    <glyph glyph-name="afii10026" unicode="&#x418;" horiz-adv-x="764" 
d="M-12 0l188 700h191l-105 -394l376 394h181l-187 -700h-192l105 394l-376 -394h-181z" />
    <glyph glyph-name="afii10027" unicode="&#x419;" horiz-adv-x="764" 
d="M-12 0l188 700h191l-105 -394l376 394h181l-187 -700h-192l105 394l-376 -394h-181zM497 745c-48 0 -85.666 13.333 -112.999 40s-41.333 64.334 -42 113.001l109 19c8.66699 -40 29 -60 61 -60c33.333 0 60 20 80 60l103 -19c-14 -48.667 -38.333 -86.334 -73 -113.001
s-76.334 -40 -125.001 -40z" />
    <glyph glyph-name="afii10028" unicode="&#x41a;" horiz-adv-x="722" 
d="M-12 0l188 700h195l-76 -280l289 280h247l-330 -307l156 -393h-210l-101 270l-121 -111l-42 -159h-195z" />
    <glyph glyph-name="afii10029" unicode="&#x41b;" horiz-adv-x="759" 
d="M40 -10c-48 0 -85.999 5.33691 -113.999 16.0039l52 149c12 -2.66699 26.667 -4 44 -4c14 0 25.167 1.16699 33.5 3.5s20 10.333 35 24s28.833 34.167 41.5 61.5s28.334 67.666 47.001 120.999s38.334 118.666 59.001 195.999l38 143h538l-187 -700h-194l143 535h-163
l-19 -71c-22.667 -83.333 -45.667 -154.333 -69 -213s-45.333 -104.834 -66 -138.501s-43.834 -59.834 -69.501 -78.501s-49.334 -30.667 -71.001 -36s-47.834 -8 -78.501 -8z" />
    <glyph glyph-name="afii10030" unicode="&#x41c;" horiz-adv-x="866" 
d="M-12 0l188 700h196l93 -271l238 271h218l-188 -700h-195l107 402l-251 -274h-4l-103 272l-107 -400h-192z" />
    <glyph glyph-name="afii10031" unicode="&#x41d;" horiz-adv-x="757" 
d="M-12 0l188 700h195l-71 -262h247l70 262h195l-188 -700h-195l72 266h-247l-71 -266h-195z" />
    <glyph glyph-name="afii10032" unicode="&#x41e;" horiz-adv-x="813" 
d="M386 -13c-98.667 0 -179 29.833 -241 89.5s-93 134.5 -93 224.5c0 52.667 10.5 104 31.5 154s49.5 94 85.5 132s80.167 68.5 132.5 91.5s108.166 34.5 167.499 34.5c98.667 0 179 -29.833 241 -89.5s93 -134.5 93 -224.5c0 -52.667 -10.5 -104 -31.5 -154
s-49.5 -94 -85.5 -132s-80.167 -68.5 -132.5 -91.5s-108.166 -34.5 -167.499 -34.5zM403 161c58.667 0 107 23.167 145 69.5s57 97.5 57 153.5c0 46 -13.5 83.333 -40.5 112s-64.5 43 -112.5 43c-58 0 -106.167 -23.333 -144.5 -70s-57.5 -97.667 -57.5 -153
c0 -46 13.5 -83.333 40.5 -112s64.5 -43 112.5 -43z" />
    <glyph glyph-name="afii10033" unicode="&#x41f;" horiz-adv-x="747" 
d="M-12 0l188 700h626l-188 -700h-195l143 530h-237l-142 -530h-195z" />
    <glyph glyph-name="afii10034" unicode="&#x420;" horiz-adv-x="672" 
d="M-12 0l188.001 700.001h229c110.667 0 190.667 -24.667 240 -74c36.667 -36.667 55 -84.334 55 -143.001c0 -86 -31.833 -154.5 -95.5 -205.5s-147.834 -76.5 -252.501 -76.5h-115l-54 -201h-195zM277.001 352.001l73 0.000976562c47.333 0 84.333 9.83301 111 29.5
s40 46.167 40 79.5c0 19.333 -6.66699 35.666 -20 48.999c-18 18 -45.667 27 -83 27h-72z" />
    <glyph glyph-name="afii10035" unicode="&#x421;" horiz-adv-x="727" 
d="M382 -14c-98 0 -177.667 27.8311 -239 83.498s-92 129.834 -92 222.501c0 70 17.333 136.833 52 200.5s86 116.5 154 158.5s145 63 231 63c70 0 129.5 -15.667 178.5 -47s84.167 -74.666 105.5 -129.999l-168 -90c-29.333 60 -76.333 90 -141 90
c-57.333 0 -106.5 -23 -147.5 -69s-61.5 -100 -61.5 -162c0 -44 13 -79 39 -105s59.667 -39 101 -39c52.667 0 102.667 23.667 150 71l131 -116c-77.333 -87.333 -175 -131 -293 -131z" />
    <glyph glyph-name="afii10036" unicode="&#x422;" horiz-adv-x="645" 
d="M151 0l143 530h-210l46 170h613l-45 -170h-210l-142 -530h-195z" />
    <glyph glyph-name="afii10037" unicode="&#x423;" horiz-adv-x="713" 
d="M153 -10c-69.333 0 -126.332 15.667 -170.999 47l114 140c19.333 -16 43.666 -24 72.999 -24c22 0 44.667 10 68 30l-135 517h206l71 -332l240 332h219l-401 -534c-47.333 -63.333 -93 -108.5 -137 -135.5s-93 -40.5 -147 -40.5z" />
    <glyph glyph-name="afii10038" unicode="&#x424;" horiz-adv-x="957" 
d="M291 -30l20.999 80c-87.333 6.66699 -154.5 33.667 -201.5 81s-70.5 108 -70.5 182c0 102.667 36.833 187.5 110.5 254.5s170.834 100.5 291.501 100.5h37l17 62h195l-17 -64c88.667 -6 157.167 -32 205.5 -78s72.5 -105.333 72.5 -178c0 -104 -37 -190.333 -111 -259
s-171 -103 -291 -103h-43l-21 -78h-195zM357.999 220l74.999 276h-15c-51.333 0 -93.666 -14.5 -126.999 -43.5s-50 -68.5 -50 -118.5c0 -33.333 10.5 -59.833 31.5 -79.5s49.5 -31.167 85.5 -34.5zM552.998 220h20.999c50.667 0 92.834 14.333 126.501 43s50.5 68 50.5 118
c0 33.333 -11 60 -33 80s-52 31.333 -90 34z" />
    <glyph glyph-name="afii10039" unicode="&#x425;" horiz-adv-x="713" 
d="M-75 0l341 366l-145 334h213l77 -197l173 197h234l-324 -348l154 -352h-214l-84 216l-190 -216h-235z" />
    <glyph glyph-name="afii10040" unicode="&#x426;" horiz-adv-x="768" 
d="M470 -140l38 140h-520l188 700h194l-143 -530h239l142 530h194l-142 -530h79l-105 -310h-164z" />
    <glyph glyph-name="afii10041" unicode="&#x427;" horiz-adv-x="709" 
d="M383 0l65.002 245c-52.667 -26.667 -116.334 -40 -191.001 -40c-57.333 0 -100.833 16.833 -130.5 50.5s-44.5 77.167 -44.5 130.5c0 28 4 56.333 12 85l63 229h194l-56 -211c-5.33301 -20 -8 -36.667 -8 -50c0 -40 24.667 -60 74 -60c51.333 0 95.666 12.667 132.999 38
l76 283h194l-187 -700h-194z" />
    <glyph glyph-name="afii10042" unicode="&#x428;" horiz-adv-x="1100" 
d="M-12 0l187 700h194l-142 -530h199l142 530h194l-142 -530h199l142 530h194l-187 -700h-980z" />
    <glyph glyph-name="afii10043" unicode="&#x429;" horiz-adv-x="1121" 
d="M823 -140l38 140h-873l187 700h194l-142 -530h199l142 530h194l-142 -530h199l142 530h194l-142 -530h79l-105 -310h-164z" />
    <glyph glyph-name="afii10044" unicode="&#x42a;" horiz-adv-x="786" 
d="M101 0l142 530h-159l45 170h353l-59 -220h87c78.667 0 141 -18.833 187 -56.5s69 -85.5 69 -143.5c0 -88 -31.167 -156.667 -93.5 -206s-142.833 -74 -241.5 -74h-330zM338 163h101c36.667 0 67.167 7.83301 91.5 23.5s36.5 39.834 36.5 72.501
c0 19.333 -7.83301 35.666 -23.5 48.999s-37.167 20 -64.5 20h-96z" />
    <glyph glyph-name="afii10045" unicode="&#x42b;" horiz-adv-x="987" 
d="M-12 0l187 700h194l-59 -220h87c78.667 0 141 -18.833 187 -56.5s69 -85.5 69 -143.5c0 -88 -31.167 -156.667 -93.5 -206s-142.833 -74 -241.5 -74h-330zM225 163h101c36.667 0 67.167 7.83301 91.5 23.5s36.5 39.834 36.5 72.501
c0 19.333 -7.83301 35.666 -23.5 48.999s-37.167 20 -64.5 20h-96zM661 0l187 700h194l-187 -700h-194z" />
    <glyph glyph-name="afii10046" unicode="&#x42c;" horiz-adv-x="673" 
d="M-12 0l187 700h194l-59 -220h87c78.667 0 141 -18.833 187 -56.5s69 -85.5 69 -143.5c0 -88 -31.167 -156.667 -93.5 -206s-142.833 -74 -241.5 -74h-330zM225 163h101c36.667 0 67.167 7.83301 91.5 23.5s36.5 39.834 36.5 72.501
c0 19.333 -7.83301 35.666 -23.5 48.999s-37.167 20 -64.5 20h-96z" />
    <glyph glyph-name="afii10047" unicode="&#x42d;" horiz-adv-x="721" 
d="M284 -14c-66 0 -125.166 13.667 -177.499 41s-90.833 64.666 -115.5 111.999l155 109c34 -60 82.333 -90 145 -90c46 0 85.667 11.5 119 34.5s58 53.833 74 92.5h-230l35 137h211c-6.66699 36 -22.667 65.167 -48 87.5s-56.666 33.5 -93.999 33.5
c-58.667 0 -111.334 -23.333 -158.001 -70l-108 126c75.333 76.667 164.666 115 267.999 115c99.333 0 181 -28.5 245 -85.5s96 -133.5 96 -229.5c0 -70 -16.667 -136.167 -50 -198.5s-82.333 -113.666 -147 -153.999s-138 -60.5 -220 -60.5z" />
    <glyph glyph-name="afii10048" unicode="&#x42e;" horiz-adv-x="1082" 
d="M665 -14c-89.333 0 -162.33 26.332 -218.997 78.999s-87.667 120.334 -93 203.001h-100l-71 -268h-194l187 700h194l-70 -264h78c30 80.667 80.167 147.167 150.5 199.5s149.166 78.5 236.499 78.5c92.667 0 167.167 -29 223.5 -87s84.5 -131.667 84.5 -221
c0 -74 -17.833 -143.167 -53.5 -207.5s-84.834 -115.833 -147.501 -154.5s-131.334 -58 -206.001 -58zM686.003 159.999c51.333 0 95.333 21.833 132 65.5s55 96.167 55 157.5c0 45.333 -12.333 82.833 -37 112.5s-57.667 44.5 -99 44.5c-51.333 0 -95.166 -22 -131.499 -66
s-54.5 -97 -54.5 -159c0 -45.333 12.167 -82.5 36.5 -111.5s57.166 -43.5 98.499 -43.5z" />
    <glyph glyph-name="afii10049" unicode="&#x42f;" horiz-adv-x="724" 
d="M-42 0l236 248c-69.333 35.333 -104 94 -104 176c0 84 31.167 151 93.5 201s144.5 75 246.5 75h349l-187 -700h-194l56 212h-74l-183 -212h-239zM388 361l106.001 -0.00195312l47 174h-108c-44.667 0 -79.334 -9.16699 -104.001 -27.5s-37 -43.166 -37 -74.499
c0 -23.333 9 -41.166 27 -53.499s41 -18.5 69 -18.5z" />
    <glyph glyph-name="afii10065" unicode="&#x430;" horiz-adv-x="597" 
d="M152 -11c-44.667 0 -81 13.332 -109 39.999s-42 62.334 -42 107.001c0 58.667 21.667 105.167 65 139.5s101 51.5 173 51.5c45.333 0 91 -7 137 -21l2 7c3.33301 14.667 5 25.667 5 33c0 38.667 -31 58 -93 58c-52 0 -100.667 -9 -146 -27l-27 138
c62.667 22 133.667 33 213 33c80 0 140.167 -15 180.5 -45s60.5 -72.333 60.5 -127c0 -24 -3.66699 -50 -11 -78l-80 -298h-187l15 58c-49.333 -46 -101.333 -69 -156 -69zM240 105.999c24 0 46.668 9.33301 68.001 28s35.666 42 42.999 70l5 18c-24 8 -47.667 12 -71 12
c-30 0 -54 -7 -72 -21s-27 -33 -27 -57c0 -15.333 5 -27.5 15 -36.5s23 -13.5 39 -13.5z" />
    <glyph glyph-name="afii10066" unicode="&#x431;" horiz-adv-x="644" 
d="M302 -13c-83.333 0 -148.166 24.667 -194.499 74s-69.5 116.333 -69.5 201c0 48.667 5.5 95.667 16.5 141s27.667 88.5 50 129.5s53.666 75.5 93.999 103.5s86.833 46.333 139.5 55l289 45v-147l-296 -52c-44 -8 -76.667 -23.167 -98 -45.5s-34 -43.5 -38 -63.5
c12 16.667 35.833 34.167 71.5 52.5s77.5 27.5 125.5 27.5c65.333 0 119.333 -19.5 162 -58.5s64 -92.5 64 -160.5c0 -84 -30.333 -155.333 -91 -214s-135.667 -88 -225 -88zM311 148c33.333 0 61.666 12.833 84.999 38.5s35 56.167 35 91.5
c0 27.333 -8.16699 49.833 -24.5 67.5s-38.166 26.5 -65.499 26.5c-33.333 0 -61.666 -12.833 -84.999 -38.5s-35 -56.167 -35 -91.5c0 -27.333 8.16699 -49.833 24.5 -67.5s38.166 -26.5 65.499 -26.5z" />
    <glyph glyph-name="afii10067" unicode="&#x432;" horiz-adv-x="605" 
d="M-21 0l145 540.999h269c69.333 0 119.333 -12 150 -36s46 -55.333 46 -94c0 -34.667 -10.833 -64 -32.5 -88s-51.5 -40.667 -89.5 -50c54.667 -19.333 82 -55.333 82 -108c0 -49.333 -20.833 -89.166 -62.5 -119.499s-102.5 -45.5 -182.5 -45.5h-325zM198 122.999h77
c26 0 46.5 5.33301 61.5 16s22.5 24.667 22.5 42c0 28.667 -22.333 43 -67 43h-67zM253 324.999h62c54.667 0 82 18.333 82 55c0 26.667 -21.667 40 -65 40h-54z" />
    <glyph glyph-name="afii10068" unicode="&#x433;" horiz-adv-x="465" 
d="M-21 0l145 541h408l-41 -153h-218l-104 -388h-190z" />
    <glyph glyph-name="afii10069" unicode="&#x434;" horiz-adv-x="659" 
d="M-89 -110l70 263h49c56.667 79.333 106.667 200 150 362l7 26h482l-104 -388h73l-89 -263h-162l30 110h-297l-40 -110h-169zM229 153h145.001l63 237h-110l-6 -24c-8.66699 -32.667 -22.834 -72.167 -42.501 -118.5s-36.167 -77.833 -49.5 -94.5z" />
    <glyph glyph-name="afii10070" unicode="&#x435;" horiz-adv-x="601" 
d="M286 -13c-79.333 0 -142.167 21.668 -188.5 65.001s-69.5 101.666 -69.5 174.999c0 84.667 30.333 160.167 91 226.5s138.667 99.5 234 99.5c75.333 0 132.5 -21.5 171.5 -64.5s58.5 -96.167 58.5 -159.5c0 -36 -7 -73 -21 -111h-359
c4.66699 -59.333 38.334 -89 101.001 -89c37.333 0 75.666 14.333 114.999 43l88 -104c-62 -54 -135.667 -81 -221 -81zM215.999 315.001h192.999c3.33301 10 5 19.667 5 29c0 20 -6.33301 36.5 -19 49.5s-31 19.5 -55 19.5c-26.667 0 -51.167 -8.5 -73.5 -25.5
s-39.166 -41.167 -50.499 -72.5z" />
    <glyph glyph-name="afii10072" unicode="&#x436;" horiz-adv-x="914" 
d="M-86 0l292 339l-112 202h195l93 -201l54 201h190l-54 -201l201 201h215l-244 -227l99 -314h-194l-61 186l-76 -69l-31 -117h-190l34 127l-32 58l-150 -185h-229z" />
    <glyph glyph-name="afii10073" unicode="&#x437;" horiz-adv-x="530" 
d="M209 -14c-54 0 -100.002 6.33398 -138.002 19.001s-73.333 33 -106 61l92 118c54.667 -39.333 104.334 -59 149.001 -59c55.333 0 83 16.333 83 49c0 26 -23 39 -69 39h-68l31 119h59c24 0 41.667 5 53 15s17 21.333 17 34c0 9.33301 -5 17.333 -15 24s-25 10 -45 10
c-24.667 0 -51.667 -5.16699 -81 -15.5s-53.666 -23.166 -72.999 -38.499l-61 104c70.667 58.667 156.667 88 258 88c67.333 0 119 -12 155 -36s54 -55.333 54 -94c0 -62.667 -37 -109.334 -111 -140.001c56.667 -20.667 85 -56.334 85 -107.001
c0 -57.333 -21.833 -103.333 -65.5 -138s-111.5 -52 -203.5 -52z" />
    <glyph glyph-name="afii10074" unicode="&#x438;" horiz-adv-x="637" 
d="M-21 0l145 541h184l-73 -271l253 271h175l-145 -541h-184l72 271l-252 -271h-175z" />
    <glyph glyph-name="afii10075" unicode="&#x439;" horiz-adv-x="637" 
d="M-21 0l145 541h184l-73 -271l253 271h175l-145 -541h-184l72 271l-252 -271h-175zM405 585c-45.333 0 -80.6689 13 -106.002 39s-38 62.667 -38 110l101 18c8 -38.667 27.333 -58 58 -58s55.334 19.333 74.001 58l97 -18c-14 -47.333 -37.167 -84 -69.5 -110
s-71.166 -39 -116.499 -39z" />
    <glyph glyph-name="afii10076" unicode="&#x43a;" horiz-adv-x="599" 
d="M-21 0l145 541h190l-52 -195l188 195h229l-247 -229l104 -312h-203l-55 180l-80 -73l-29 -107h-190z" />
    <glyph glyph-name="afii10077" unicode="&#x43b;" horiz-adv-x="638" 
d="M26 -7c-35.333 0 -63.999 4.66895 -85.999 14.002l45 141c13.333 -2 23.333 -3 30 -3c17.333 0 31.5 4.5 42.5 13.5s25.667 35.5 44 79.5s39.5 110.333 63.5 199l28 104h467l-145 -541h-190l104 390h-100l-19 -67c-11.333 -40 -22.5 -75.833 -33.5 -107.5
s-22.333 -58.834 -34 -81.501s-22.334 -42.167 -32.001 -58.5s-21 -29.666 -34 -39.999s-24.333 -18.333 -34 -24s-22 -9.83398 -37 -12.501s-27.5 -4.33398 -37.5 -5.00098s-24 -1 -42 -1z" />
    <glyph glyph-name="afii10078" unicode="&#x43c;" horiz-adv-x="739" 
d="M-21 0l145 541h177l81 -187l170 187h209l-145 -541h-190l71 267l-181 -184l-80 180l-70 -263h-187z" />
    <glyph glyph-name="afii10079" unicode="&#x43d;" horiz-adv-x="634" 
d="M-21 0l145 541h190l-52 -192h156l52 192h190l-145 -541h-190l52 196h-156l-52 -196h-190z" />
    <glyph glyph-name="afii10080" unicode="&#x43e;" horiz-adv-x="644" 
d="M295 -13c-80.667 0 -145.001 23.668 -193.001 71.001s-72 107.666 -72 180.999c0 83.333 30.833 156.5 92.5 219.5s136.834 94.5 225.501 94.5c81.333 0 146 -23.667 194 -71s72 -107.333 72 -180c0 -84 -30.833 -157.5 -92.5 -220.5s-137.167 -94.5 -226.5 -94.5z
M305.999 145.001c36 0 66 15.5 90 46.5s36 65.5 36 103.5c0 30 -8.66699 54.167 -26 72.5s-40 27.5 -68 27.5c-36 0 -66 -15.5 -90 -46.5s-36 -65.167 -36 -102.5c0 -30.667 8.66699 -55.167 26 -73.5s40 -27.5 68 -27.5z" />
    <glyph glyph-name="afii10081" unicode="&#x43f;" horiz-adv-x="626" 
d="M-21 0l145 541h528l-145 -541h-190l104 388h-148l-104 -388h-190z" />
    <glyph glyph-name="afii10082" unicode="&#x440;" horiz-adv-x="672" 
d="M-64 -160l188.003 701h190l-16 -57c47.333 46 98.666 69 153.999 69s101.166 -20 137.499 -60s54.5 -94 54.5 -162c0 -96 -28.833 -177.167 -86.5 -243.5s-125.834 -99.5 -204.501 -99.5c-72 0 -126.667 28.667 -164 86l-63 -234h-190zM320.003 146
c36 0 67 15.168 93 45.501s39 66.833 39 109.5c0 28.667 -8.5 51.667 -25.5 69s-39.167 26 -66.5 26c-36 0 -67.333 -15.333 -94 -46s-40 -66.667 -40 -108c0 -28.667 8.66699 -51.834 26 -69.501s40 -26.5 68 -26.5z" />
    <glyph glyph-name="afii10083" unicode="&#x441;" horiz-adv-x="563" 
d="M281 -13c-74 0 -134.667 21.499 -182 64.499s-71 100.5 -71 172.5c0 90.667 31.667 168 95 232s140 96 230 96c60 0 109.5 -13.667 148.5 -41s66.167 -63 81.5 -107l-149 -77c-19.333 45.333 -50.333 68 -93 68c-35.333 0 -65.833 -16.333 -91.5 -49
s-38.5 -70 -38.5 -112c0 -27.333 7.83301 -49.166 23.5 -65.499s35.5 -24.5 59.5 -24.5c34.667 0 68.667 16.667 102 50l116 -101c-60.667 -70.667 -137.667 -106 -231 -106z" />
    <glyph glyph-name="afii10084" unicode="&#x442;" horiz-adv-x="522" 
d="M101 0l104 388h-163l41 153h506l-41 -153h-153l-104 -388h-190z" />
    <glyph glyph-name="afii10085" unicode="&#x443;" horiz-adv-x="622" 
d="M94 -163c-56 0 -104 13 -144 39l85 139c24.667 -18 49.667 -27 75 -27c18 0 33.667 6.66699 47 20l-70 533h193l22 -325l182 325h200l-335 -538c-38.667 -60.667 -77.5 -103.5 -116.5 -128.5s-85.167 -37.5 -138.5 -37.5z" />
    <glyph glyph-name="afii10086" unicode="&#x444;" horiz-adv-x="922" 
d="M251 -160l48.999 185c-37.333 -22.667 -75.333 -34 -114 -34c-50 0 -88.5 18 -115.5 54s-40.5 88.667 -40.5 158c0 41.333 6 82.166 18 122.499s29.333 77.333 52 111s52.834 61 90.501 82s79.834 31.5 126.501 31.5c41.333 0 78.666 -15 111.999 -45l52 195h190
l-51 -189c38.667 26 77 39 115 39c50.667 0 89.5 -18.167 116.5 -54.5s40.5 -89.166 40.5 -158.499c0 -41.333 -6 -82 -18 -122s-29.5 -77 -52.5 -111s-53.167 -61.333 -90.5 -82s-79 -31 -125 -31c-42.667 0 -80.667 13 -114 39l-51 -190h-190zM285.999 144
c17.333 0 33.666 3.33203 48.999 9.99902l62 232c-16 7.33301 -33.667 11 -53 11c-35.333 0 -64.166 -16.333 -86.499 -49s-33.5 -73.667 -33.5 -123c0 -23.333 5 -42.666 15 -57.999s25.667 -23 47 -23zM577.999 143.999c34.667 0 63.499 16 86.499 48
s34.5 72.667 34.5 122c0 24 -5.16699 43.833 -15.5 59.5s-26.166 23.5 -47.499 23.5c-16 0 -32.333 -3.66699 -49 -11l-62 -231c16 -7.33301 33.667 -11 53 -11z" />
    <glyph glyph-name="afii10087" unicode="&#x445;" horiz-adv-x="589" 
d="M-62 0l259 281l-112 260h197l47 -131l109 131h214l-252 -274l114 -267h-197l-49 137l-116 -137h-214z" />
    <glyph glyph-name="afii10088" unicode="&#x446;" horiz-adv-x="642" 
d="M370 -110l30 110h-421l145 541h190l-104 -388h148l104 388h190l-104 -388h73l-89 -263h-162z" />
    <glyph glyph-name="afii10089" unicode="&#x447;" horiz-adv-x="609" 
d="M300 0l46 174c-39.333 -16 -86 -24 -140 -24c-46 0 -82.167 12.833 -108.5 38.5s-39.5 59.5 -39.5 101.5c0 16 2.66699 34.667 8 56l53 195h191l-41 -153c-4.66699 -18.667 -7 -32 -7 -40c0 -28.667 13.667 -43 41 -43c34 0 62 7 84 21l58 215h190l-145 -541h-190z" />
    <glyph glyph-name="afii10090" unicode="&#x448;" horiz-adv-x="934" 
d="M-21 0l145 541h190l-104 -388h133l104 388h190l-104 -388h133l104 388h190l-145 -541h-836z" />
    <glyph glyph-name="afii10091" unicode="&#x449;" horiz-adv-x="950" 
d="M678 -110l30 110h-729l145 541h190l-104 -388h133l104 388h190l-104 -388h133l104 388h190l-104 -388h73l-89 -263h-162z" />
    <glyph glyph-name="afii10092" unicode="&#x44a;" horiz-adv-x="661" 
d="M66 0l104.001 388h-131l41 153h321l-46 -170h77c61.333 0 109.666 -14.5 144.999 -43.5s53 -66.167 53 -111.5c0 -68 -24.167 -121 -72.5 -159s-110.5 -57 -186.5 -57h-305zM292.001 136l61 0.000976562c26 0 47.333 5.5 64 16.5s25 27.833 25 50.5
c0 13.333 -5.33301 24.666 -16 33.999s-25.667 14 -45 14h-58z" />
    <glyph glyph-name="afii10093" unicode="&#x44b;" horiz-adv-x="854" 
d="M-21 0l145.001 541h190l-46 -170h77c61.333 0 109.666 -14.5 144.999 -43.5s53 -66.167 53 -111.5c0 -68 -24.167 -121 -72.5 -159s-110.5 -57 -186.5 -57h-305zM205.001 136l61 0.000976562c26 0 47.333 5.5 64 16.5s25 27.833 25 50.5
c0 13.333 -5.33301 24.666 -16 33.999s-25.667 14 -45 14h-58zM545.001 0.000976562l145 541h190l-145 -541h-190z" />
    <glyph glyph-name="afii10094" unicode="&#x44c;" horiz-adv-x="574" 
d="M-21 0l145.001 541h190l-46 -170h77c61.333 0 109.666 -14.5 144.999 -43.5s53 -66.167 53 -111.5c0 -68 -24.167 -121 -72.5 -159s-110.5 -57 -186.5 -57h-305zM205.001 136l61 0.000976562c26 0 47.333 5.5 64 16.5s25 27.833 25 50.5
c0 13.333 -5.33301 24.666 -16 33.999s-25.667 14 -45 14h-58z" />
    <glyph glyph-name="afii10095" unicode="&#x44d;" horiz-adv-x="563" 
d="M221 -13c-60.667 0 -111.333 12.5 -152 37.5s-71 57.833 -91 98.5l144 89c20 -47.333 52.667 -71 98 -71c25.333 0 48.166 7 68.499 21s36.166 33 47.499 57h-156l29 105h141c-5.33301 24 -16.166 42.667 -32.499 56s-34.833 20 -55.5 20
c-41.333 0 -77.666 -15.667 -108.999 -47l-106 109c56 60 133 90 231 90c72.667 0 133 -24.333 181 -73s72 -109.667 72 -183c0 -90 -30 -164 -90 -222s-133.333 -87 -220 -87z" />
    <glyph glyph-name="afii10096" unicode="&#x44e;" horiz-adv-x="903" 
d="M565 -13c-72.667 0 -132.169 19.1689 -178.502 57.502s-74.166 88.833 -83.499 151.5h-82l-52 -196h-190l145 541h190l-52 -192h59c23.333 59.333 61.833 108.166 115.5 146.499s114.167 57.5 181.5 57.5c80.667 0 143.334 -23.5 188.001 -70.5s67 -107.167 67 -180.5
c0 -84.667 -29.167 -158.334 -87.5 -221.001s-131.833 -94 -220.5 -94zM570.998 145.002c35.333 0 64.167 15.5 86.5 46.5s33.5 65.5 33.5 103.5c0 30.667 -7.66699 55 -23 73s-37 27 -65 27c-35.333 0 -64.333 -15.333 -87 -46s-34 -65 -34 -103
c0 -31.333 7.83301 -56 23.5 -74s37.5 -27 65.5 -27z" />
    <glyph glyph-name="afii10097" unicode="&#x44f;" horiz-adv-x="619" 
d="M-44 0l169.999 189c-11.333 7.33301 -20.666 15 -27.999 23c-28.667 29.333 -43 66.333 -43 111c0 66.667 24.667 119.667 74 159s114 59 194 59h318l-145 -541h-191l41 156h-35l-128 -156h-227zM313.999 283h69l31 115h-71c-30 0 -53 -6 -69 -18s-24 -28.667 -24 -50
c0 -12.667 3.66699 -22.667 11 -30c12 -11.333 29.667 -17 53 -17z" />
    <glyph glyph-name="afii10071" unicode="&#x451;" horiz-adv-x="601" 
d="M286 -13c-79.333 0 -142.167 21.668 -188.5 65.001s-69.5 101.666 -69.5 174.999c0 84.667 30.333 160.167 91 226.5s138.667 99.5 234 99.5c75.333 0 132.5 -21.5 171.5 -64.5s58.5 -96.167 58.5 -159.5c0 -36 -7 -73 -21 -111h-359
c4.66699 -59.333 38.334 -89 101.001 -89c37.333 0 75.666 14.333 114.999 43l88 -104c-62 -54 -135.667 -81 -221 -81zM215.999 315.001h192.999c3.33301 10 5 19.667 5 29c0 20 -6.33301 36.5 -19 49.5s-31 19.5 -55 19.5c-26.667 0 -51.167 -8.5 -73.5 -25.5
s-39.166 -41.167 -50.499 -72.5zM181.998 587.001l39 143h166l-39 -143h-166zM400.998 587.001l39 143h166l-39 -143h-166z" />
    <glyph glyph-name="afii10099" unicode="&#x452;" horiz-adv-x="632" 
d="M326 -14c-40.667 0 -75.002 4.66797 -103.002 14.001l51 153c2.66699 -0.666992 11.667 -1 27 -1c24.667 0 46.334 11.5 65.001 34.5s28 51.167 28 84.5c0 46.667 -19.667 70 -59 70c-49.333 0 -83 -32.667 -101 -98l-65 -243h-190l144 541h-62l34 128h62l17 61h190
l-17 -61h158l-34 -128h-158l-27 -105c52.667 49.333 104 74 154 74c52.667 0 91.834 -15 117.501 -45s38.5 -69.333 38.5 -118c0 -26 -3.66699 -53.667 -11 -83l-32 -119c-16 -58.667 -42.5 -99.834 -79.5 -123.501s-86.167 -35.5 -147.5 -35.5z" />
    <glyph glyph-name="afii10100" unicode="&#x453;" horiz-adv-x="465" 
d="M-21 0l145 541h408l-41 -153h-218l-104 -388h-190zM199 587l155 185l173 -57l-181 -128h-147z" />
    <glyph glyph-name="afii10101" unicode="&#x454;" horiz-adv-x="563" 
d="M280 -13c-73.333 0 -133.834 22.832 -181.501 68.499s-71.5 104.834 -71.5 177.501c0 90 30.167 165.667 90.5 227s133.5 92 219.5 92c114 0 193.333 -45.333 238 -136l-137 -84c-19.333 45.333 -52.666 68 -99.999 68c-24.667 0 -47 -7 -67 -21s-35.667 -32.333 -47 -55
h154l-29 -105h-142c4 -25.333 14.5 -45 31.5 -59s36.167 -21 57.5 -21c38.667 0 75.667 17.667 111 53l106 -109c-59.333 -64 -137 -96 -233 -96z" />
    <glyph glyph-name="afii10102" unicode="&#x455;" horiz-adv-x="511" 
d="M230 -13c-51.333 0 -100.501 8.33496 -147.501 25.002s-86.833 39.667 -119.5 69l94 111c25.333 -22.667 54.5 -40.5 87.5 -53.5s63.833 -19.5 92.5 -19.5c32 0 48 11 48 33c0 9.33301 -5.33301 17.333 -16 24s-30 15.667 -58 27c-50 20 -87.833 41.5 -113.5 64.5
s-38.5 54.167 -38.5 93.5c0 55.333 21.167 101.166 63.5 137.499s99.833 54.5 172.5 54.5c46 0 89.833 -7.33301 131.5 -22s75.834 -32.667 102.501 -54l-91 -114c-52 38.667 -103 58 -153 58c-31.333 0 -47 -10.333 -47 -31c0 -8.66699 5.33301 -16.5 16 -23.5
s30.334 -16.167 59.001 -27.5c48.667 -19.333 86 -40.333 112 -63s39 -54.334 39 -95.001c0 -55.333 -20.333 -101.5 -61 -138.5s-98.334 -55.5 -173.001 -55.5z" />
    <glyph glyph-name="afii10103" unicode="&#x456;" horiz-adv-x="301" 
d="M-17 0l145 541h190l-145 -541h-190zM138 590l38 140h198l-38 -140h-198z" />
    <glyph glyph-name="afii10104" unicode="&#x457;" horiz-adv-x="301" 
d="M29 587l39 143h166l-39 -143h-166zM248 587l39 143h166l-39 -143h-166zM-17 0l145 541h190l-145 -541h-190z" />
    <glyph glyph-name="afii10105" unicode="&#x458;" horiz-adv-x="303" 
d="M-53 -163c-28.667 0 -55.6641 2.33203 -80.9971 6.99902l33 126c8 -2 16 -3 24 -3c19.333 0 34.666 5.83301 45.999 17.5s20.666 31.834 27.999 60.501l133 496h190l-140 -520c-18.667 -68.667 -46.334 -116.5 -83.001 -143.5s-86.667 -40.5 -150 -40.5zM139.003 589.999
l38 140h198l-38 -140h-198z" />
    <glyph glyph-name="afii10106" unicode="&#x459;" horiz-adv-x="920" 
d="M26 -7c-35.333 0 -63.998 4.66895 -85.998 14.002l45 141c13.333 -2 23.333 -3 30 -3c17.333 0 31.5 4.5 42.5 13.5s25.667 35.5 44 79.5s39.5 110.333 63.5 199l28 104h467l-46 -170h77c61.333 0 109.666 -14.5 144.999 -43.5s53 -66.167 53 -111.5
c0 -68 -24.167 -121 -72.5 -159s-110.5 -57 -186.5 -57h-305l104 390h-100l-19 -67c-11.333 -40 -22.5 -75.833 -33.5 -107.5s-22.333 -58.834 -34 -81.501s-22.334 -42.167 -32.001 -58.5s-21 -29.666 -34 -39.999s-24.333 -18.333 -34 -24s-22 -9.83398 -37 -12.501
s-27.5 -4.33398 -37.5 -5.00098s-24 -1 -42 -1zM551.002 136.002l61 0.000976562c26 0 47.333 5.5 64 16.5s25 27.833 25 50.5c0 13.333 -5.33301 24.666 -16 33.999s-25.667 14 -45 14h-58z" />
    <glyph glyph-name="afii10107" unicode="&#x45a;" horiz-adv-x="920" 
d="M-21 0l145.001 541h190l-49 -179h156l49 179h190l-49 -179h77c61.333 0 110.166 -14 146.499 -42s54.5 -64.333 54.5 -109c0 -67.333 -24 -119.333 -72 -156s-110.333 -55 -187 -55h-305l58 221h-156l-58 -221h-190zM551.001 136h61c59.333 0 89 20.667 89 62
c0 12.667 -5.83301 23.167 -17.5 31.5s-27.167 12.5 -46.5 12.5h-58z" />
    <glyph glyph-name="afii10108" unicode="&#x45b;" horiz-adv-x="632" 
d="M-21 0l143.999 541h-62l34 128h62l17 61h190l-17 -61h158l-34 -128h-158l-28 -105c46.667 49.333 98.334 74 155.001 74c48.667 0 87 -14.5 115 -43.5s42 -68.5 42 -118.5c0 -24.667 -5.33301 -57 -16 -97l-66 -251h-190l64 240c4 14 6 28.667 6 44c0 38 -20 57 -60 57
c-49.333 0 -83 -32.667 -101 -98l-65 -243h-190z" />
    <glyph glyph-name="afii10109" unicode="&#x45c;" horiz-adv-x="599" 
d="M-21 0l145 541h190l-52 -195l188 195h229l-247 -229l104 -312h-203l-55 180l-80 -73l-29 -107h-190zM266 587l155 185l173 -57l-181 -128h-147z" />
    <glyph glyph-name="afii10110" unicode="&#x45e;" horiz-adv-x="622" 
d="M94 -163c-56 0 -104 13 -144 39l85 139c24.667 -18 49.667 -27 75 -27c18 0 33.667 6.66699 47 20l-70 533h193l22 -325l182 325h200l-335 -538c-38.667 -60.667 -77.5 -103.5 -116.5 -128.5s-85.167 -37.5 -138.5 -37.5zM385 585c-45.333 0 -80.6689 13 -106.002 39
s-38 62.667 -38 110l101 18c8 -38.667 27.333 -58 58 -58s55.334 19.333 74.001 58l97 -18c-14 -47.333 -37.167 -84 -69.5 -110s-71.166 -39 -116.499 -39z" />
    <glyph glyph-name="afii10193" unicode="&#x45f;" horiz-adv-x="626" 
d="M122 -110l30 110h-173l145 541h190l-104 -388h148l104 388h190l-145 -541h-175l-30 -110h-180z" />
    <glyph glyph-name="afii10050" unicode="&#x490;" horiz-adv-x="592" 
d="M-12 0l187 700h318l38 140h164l-61 -310h-310l-142 -530h-194z" />
    <glyph glyph-name="afii10098" unicode="&#x491;" horiz-adv-x="465" 
d="M-21 0l145 541h228l29 110h162l-52 -263h-218l-104 -388h-190z" />
    <glyph glyph-name="endash" unicode="&#x2013;" horiz-adv-x="526" 
d="M33 231l44 163h438l-44 -163h-438z" />
    <glyph glyph-name="emdash" unicode="&#x2014;" horiz-adv-x="896" 
d="M33 231l44 163h808l-44 -163h-808z" />
    <glyph glyph-name="quoteleft" unicode="&#x2018;" horiz-adv-x="302" 
d="M63 344l45.002 169.001c17.333 65.333 45.166 113.166 83.499 143.499s94.166 47.166 167.499 50.499l8 -74c-75.333 -7.33301 -119 -38.666 -131 -93.999h77l-53 -195h-197z" />
    <glyph glyph-name="quoteright" unicode="&#x2019;" horiz-adv-x="302" 
d="M66 338l-8.00195 73.0029c75.333 7.33301 119 38.666 131 93.999h-77l53 195h197l-45 -169c-17.333 -64.667 -45.166 -112.334 -83.499 -143.001s-94.166 -47.334 -167.499 -50.001z" />
    <glyph glyph-name="quotesinglbase" unicode="&#x201a;" horiz-adv-x="302" 
d="M-66 -167l-8 73.002c74.667 7.33301 118 38.666 130 93.999h-76l52 195h198l-45 -168c-18 -65.333 -46 -113.333 -84 -144s-93.667 -47.334 -167 -50.001z" />
    <glyph glyph-name="quotedblleft" unicode="&#x201c;" horiz-adv-x="565" 
d="M64 343l45.002 169.001c17.333 65.333 44.666 113.166 81.999 143.499s92.666 47.166 165.999 50.499l8 -74c-73.333 -7.33301 -116 -38.666 -128 -93.999h74l-52 -195h-195zM330.002 343.001l45.002 169.001c17.333 65.333 44.666 113.166 81.999 143.499
s92.666 47.166 165.999 50.499l8 -74c-73.333 -7.33301 -116 -38.666 -128 -93.999h74l-52 -195h-195z" />
    <glyph glyph-name="quotedblright" unicode="&#x201d;" horiz-adv-x="565" 
d="M67 338l-7.99902 73c73.333 7.33301 116 38.666 128 93.999h-74l52 195h195l-45 -169c-17.333 -65.333 -44.833 -113.166 -82.5 -143.499s-92.834 -46.833 -165.501 -49.5zM333.001 338l-7.99902 73c73.333 7.33301 116 38.666 128 93.999h-74l52 195h195l-45 -169
c-17.333 -65.333 -44.833 -113.166 -82.5 -143.499s-92.834 -46.833 -165.501 -49.5z" />
    <glyph glyph-name="quotedblbase" unicode="&#x201e;" horiz-adv-x="565" 
d="M-66 -167l-7.99902 73.002c73.333 7.33301 116 38.666 128 93.999h-74l52 195h195l-45 -168c-17.333 -65.333 -44.833 -113.333 -82.5 -144s-92.834 -47.334 -165.501 -50.001zM200.001 -166.998l-7.99902 73.002c73.333 7.33301 116 38.666 128 93.999h-74l52 195h195
l-45 -168c-17.333 -65.333 -44.833 -113.333 -82.5 -144s-92.834 -47.334 -165.501 -50.001z" />
    <glyph glyph-name="dagger" unicode="&#x2020;" horiz-adv-x="412" 
d="M143 223l83 270l-129 -13l28 104l121 -13l19 129h112l-50 -129l128 13l-28 -104l-122 13l-62 -270h-100z" />
    <glyph glyph-name="daggerdbl" unicode="&#x2021;" horiz-adv-x="422" 
d="M82 0l50 129l-127 -13l27 104l122 -13l26 143l51 143l-129 -13l28 104l121 -13l19 129h112l-50 -129l127 13l-28 -104l-121 13l-26 -143l-52 -143l130 13l-28 -104l-121 13l-19 -129h-112z" />
    <glyph glyph-name="bullet" unicode="&#x2022;" horiz-adv-x="501" 
d="M246 180c-42 0 -74.833 12.333 -98.5 37s-35.5 57 -35.5 97c0 54 17.667 102.667 53 146s80 65 134 65c41.333 0 74 -12.333 98 -37s36 -57 36 -97c0 -54 -17.833 -102.667 -53.5 -146s-80.167 -65 -133.5 -65z" />
    <glyph glyph-name="ellipsis" unicode="&#x2026;" horiz-adv-x="858" 
d="M-20 0l51 192h195l-52 -192h-194zM260 0l51 192h195l-52 -192h-194zM540 0l51 192h195l-52 -192h-194z" />
    <glyph glyph-name="perthousand" unicode="&#x2030;" horiz-adv-x="1349" 
d="M68 0l689 700h141l-690 -700h-140zM683 -10c-52 0 -92.833 15.167 -122.5 45.5s-44.5 69.5 -44.5 117.5c0 56.667 19.167 107 57.5 151s86.833 66 145.5 66c52 0 92.833 -15.167 122.5 -45.5s44.5 -69.5 44.5 -117.5c0 -56.667 -19.167 -107 -57.5 -151
s-86.833 -66 -145.5 -66zM688 95c24 0 43.667 11 59 33s23 46.667 23 74c0 18.667 -5.16699 33.834 -15.5 45.501s-23.833 17.5 -40.5 17.5c-24 0 -43.667 -11 -59 -33s-23 -46.667 -23 -74c0 -18.667 5.16699 -33.834 15.5 -45.501s23.833 -17.5 40.5 -17.5zM1109 -10
c-52 0 -92.833 15.167 -122.5 45.5s-44.5 69.5 -44.5 117.5c0 56.667 19.167 107 57.5 151s86.5 66 144.5 66c52 0 92.833 -15.167 122.5 -45.5s44.5 -69.5 44.5 -117.5c0 -56.667 -19.167 -107 -57.5 -151s-86.5 -66 -144.5 -66zM1114 95c23.333 0 42.666 11 57.999 33
s23 46.667 23 74c0 18.667 -5 33.834 -15 45.501s-23.667 17.5 -41 17.5c-23.333 0 -42.666 -11 -57.999 -33s-23 -46.667 -23 -74c0 -18.667 5 -33.834 15 -45.501s23.667 -17.5 41 -17.5zM247 330c-52 0 -93 15.167 -123 45.5s-45 69.5 -45 117.5
c0 56.667 19.167 107 57.5 151s86.833 66 145.5 66c52 0 92.833 -15.167 122.5 -45.5s44.5 -69.5 44.5 -117.5c0 -56.667 -19.167 -107 -57.5 -151s-86.5 -66 -144.5 -66zM252 435c23.333 0 42.666 11 57.999 33s23 46.667 23 74c0 18.667 -5 33.834 -15 45.501
s-23.667 17.5 -41 17.5c-23.333 0 -42.666 -11 -57.999 -33s-23 -46.667 -23 -74c0 -18.667 5 -33.834 15 -45.501s23.667 -17.5 41 -17.5z" />
    <glyph glyph-name="guilsinglleft" unicode="&#x2039;" horiz-adv-x="357" 
d="M133 25l-105 219l13 49l218 214l104 -96l-168 -163l79 -160z" />
    <glyph glyph-name="guilsinglright" unicode="&#x203a;" horiz-adv-x="357" 
d="M96 25l-105 96l168 164l-79 160l141 62l106 -219l-14 -48z" />
    <glyph glyph-name="fraction" unicode="&#x2044;" horiz-adv-x="546" 
d="M-140 -98l694 856h159l-695 -856h-158z" />
    <glyph glyph-name="Euro" unicode="&#x20ac;" horiz-adv-x="677" 
d="M385 -14c-76 0 -139.168 21.498 -189.501 64.498s-79.166 100.5 -86.499 172.5h-90l28 104h67c4 22.667 7.66699 39.334 11 50.001h-65l28 104h65c30 70.667 73.667 127.167 131 169.5s125.666 63.5 204.999 63.5c118.667 0 200.667 -49 246 -147l-142 -95
c-14 26 -30.167 45 -48.5 57s-41.833 18 -70.5 18c-51.333 0 -92.333 -22.667 -123 -68h169l-27 -101h-180c-5.33301 -17.333 -9.33301 -34.666 -12 -51.999h178l-27 -101h-154c10.667 -48 42.334 -72 95.001 -72c44.667 0 86.667 19.667 126 59l111 -119
c-67.333 -71.333 -149 -107 -245 -107z" />
    <glyph glyph-name="afii61352" unicode="&#x2116;" horiz-adv-x="1098" 
d="M-12 0l187 700h181l124 -350l94 350h202l-187 -700h-170l-132 364l-97 -364h-202zM711 110l31 117h292l-31 -117h-292zM914 273c-42.667 0 -76.5 13.167 -101.5 39.5s-37.5 59.833 -37.5 100.5c0 53.333 18.167 99.5 54.5 138.5s80.5 58.5 132.5 58.5
c42.667 0 76.5 -13.333 101.5 -40s37.5 -60 37.5 -100c0 -53.333 -18.333 -99.5 -55 -138.5s-80.667 -58.5 -132 -58.5zM929 371c16 0 30.167 8.16797 42.5 24.501s18.5 36.166 18.5 59.499c0 16 -4 29.5 -12 40.5s-18.333 16.5 -31 16.5
c-16 0 -30.167 -8.16699 -42.5 -24.5s-18.5 -36.166 -18.5 -59.499c0 -16.667 4 -30.334 12 -41.001s18.333 -16 31 -16z" />
    <glyph glyph-name="published" unicode="&#x2117;" horiz-adv-x="830" 
d="M437 -14c-100.667 0 -186 35.667 -256 107s-105 157 -105 257c0 99.333 35.333 184.833 106 256.5s156.334 107.5 257.001 107.5s186 -35.667 256 -107s105 -157 105 -257c0 -99.333 -35.333 -184.833 -106 -256.5s-156.334 -107.5 -257.001 -107.5zM437 26
c90.667 0 166.834 31.833 228.501 95.5s92.5 140.5 92.5 230.5c0 89.333 -30.667 165.333 -92 228s-137 94 -227 94c-90.667 0 -166.834 -31.833 -228.501 -95.5s-92.5 -140.5 -92.5 -230.5c0 -89.333 30.667 -165.333 92 -228s137 -94 227 -94zM295 164
l-0.000976562 384.999h166c49.333 0 88.333 -12.167 117 -36.5s43 -58.166 43 -101.499s-15.167 -77 -45.5 -101s-70.166 -36 -119.499 -36h-53v-110h-108zM402.999 357.999h50c18.667 0 33.5 4.5 44.5 13.5s16.5 21.5 16.5 37.5c0 33.333 -20.667 50 -62 50h-49v-101z" />
    <glyph glyph-name="servicemark" unicode="&#x2120;" 
d="M0 0v700h500v-700h-500zM81 49h340l-171 255zM50 95l170 254l-170 256v-510zM451 95v510l-172 -256zM250 395l171 255h-340z" />
    <glyph glyph-name="trademark" unicode="&#x2122;" horiz-adv-x="695" 
d="M130 392l63 233h-92l20 75h270l-20 -75h-92l-62 -233h-87zM357 392l82 308h87l41 -119l105 119h95l-82 -308h-85l48 180l-111 -122h-3l-45 122l-48 -180h-84z" />
    <glyph glyph-name="partialdiff" unicode="&#x2202;" 
d="M0 0v700h500v-700h-500zM81 49h340l-171 255zM50 95l170 254l-170 256v-510zM451 95v510l-172 -256zM250 395l171 255h-340z" />
    <glyph glyph-name="Delta" unicode="&#x2206;" horiz-adv-x="760" 
d="M-70 0l471 700h180l97 -700h-748zM259 170h196l-19 293z" />
    <glyph glyph-name="product" unicode="&#x220f;" 
d="M0 0v700h500v-700h-500zM81 49h340l-171 255zM50 95l170 254l-170 256v-510zM451 95v510l-172 -256zM250 395l171 255h-340z" />
    <glyph glyph-name="summation" unicode="&#x2211;" 
d="M0 0v700h500v-700h-500zM81 49h340l-171 255zM50 95l170 254l-170 256v-510zM451 95v510l-172 -256zM250 395l171 255h-340z" />
    <glyph glyph-name="minus" unicode="&#x2212;" horiz-adv-x="640" 
d="M74 269l45 167h491l-45 -167h-491z" />
    <glyph glyph-name="radical" unicode="&#x221a;" horiz-adv-x="596" 
d="M282 -128l-179 351h-106v118h175l96 -185l268 642h134z" />
    <glyph glyph-name="infinity" unicode="&#x221e;" horiz-adv-x="889" 
d="M284 135c-64 0 -114.669 20.667 -152.002 62s-56 94.333 -56 159c0 63.333 18 114.833 54 154.5s85.667 59.5 149 59.5c42.667 0 78.334 -10.5 107.001 -31.5s58.334 -52.5 89.001 -94.5c29.333 42 58.5 73.5 87.5 94.5s65.5 31.5 109.5 31.5
c63.333 0 113 -19.833 149 -59.5s54 -91.167 54 -154.5c0 -64 -18 -116.833 -54 -158.5s-85.667 -62.5 -149 -62.5c-72 0 -137.667 39.333 -197 118c-28 -38 -56.833 -67.167 -86.5 -87.5s-64.5 -30.5 -104.5 -30.5zM280.998 273c40 0 78.333 26.001 115 78.001
c-39.333 54.667 -78 82 -116 82c-22 0 -39.5 -7.83301 -52.5 -23.5s-19.5 -34.834 -19.5 -57.501c0 -23.333 6.5 -42.333 19.5 -57s30.833 -22 53.5 -22zM669.998 273.001c23.333 0 41.332 7.5 53.999 22.5s19 34.167 19 57.5c0 22.667 -7 41.667 -21 57s-32.333 23 -55 23
c-36 0 -73.667 -27.333 -113 -82c36.667 -52 75.334 -78 116.001 -78z" />
    <glyph glyph-name="integral" unicode="&#x222b;" 
d="M0 0v700h500v-700h-500zM81 49h340l-171 255zM50 95l170 254l-170 256v-510zM451 95v510l-172 -256zM250 395l171 255h-340z" />
    <glyph glyph-name="approxequal" unicode="&#x2248;" horiz-adv-x="640" 
d="M96 122l-92 26.001c18.667 48.667 47.167 92.5 85.5 131.5s78.833 58.5 121.5 58.5c27.333 0 67 -9.83301 119 -29.5s86.333 -29.5 103 -29.5c32.667 0 60 17.667 82 53l92 -25c-20.667 -50.667 -49.334 -95.167 -86.001 -133.5s-77 -57.5 -121 -57.5
c-26 0 -67 10 -123 30s-90.333 30 -103 30c-14 0 -28.167 -5.33301 -42.5 -16s-26.166 -23.334 -35.499 -38.001zM164 373.001l-91.999 26.001c18 48 46.167 91.667 84.5 131s79.166 59 122.499 59c27.333 0 67 -9.83301 119 -29.5s86.333 -29.5 103 -29.5
c32 0 59 17.667 81 53l92 -25c-20 -50 -48.5 -94.333 -85.5 -133s-77.5 -58 -121.5 -58c-26 0 -67 10 -123 30s-90.333 30 -103 30c-14 0 -28.167 -5.33301 -42.5 -16s-25.833 -23.334 -34.5 -38.001z" />
    <glyph glyph-name="notequal" unicode="&#x2260;" horiz-adv-x="640" 
d="M157 -11l-120 68l58 77h-57l45 167h139l78 102h-190l45 167h272l110 145l119 -68l-59 -77h50l-45 -167h-131l-78 -102h181l-44 -167h-263z" />
    <glyph glyph-name="lessequal" unicode="&#x2264;" horiz-adv-x="640" 
d="M8 -16l42 157h491l-42 -157h-491zM547 165l-444 168l47 177l535 168l-48 -183l-348 -79l306 -79z" />
    <glyph glyph-name="greaterequal" unicode="&#x2265;" horiz-adv-x="640" 
d="M17 -16l42 157h491l-42 -157h-491zM67 165l48 186l348 79l-306 79l48 169l443 -168l-47 -177z" />
    <glyph glyph-name="lozenge" unicode="&#x25ca;" horiz-adv-x="640" 
d="M263 -35l-194 391l196 391h140l196 -391l-196 -391h-142zM335 125l104 231l-104 231l-105 -231z" />
    <glyph glyph-name="cyrBreve" unicode="&#xf6d1;" 
d="M353 585c-48 0 -85.666 13.333 -112.999 40s-41.333 64.334 -42 113.001l109 19c8.66699 -40 29 -60 61 -60c33.333 0 60 20 80 60l103 -19c-14 -48.667 -38.333 -86.334 -73 -113.001s-76.334 -40 -125.001 -40z" />
    <glyph glyph-name="cyrbreve" unicode="&#xf6d4;" 
d="M352 585c-45.333 0 -80.6689 13 -106.002 39s-38 62.667 -38 110l101 18c8 -38.667 27.333 -58 58 -58s55.334 19.333 74.001 58l97 -18c-14 -47.333 -37.167 -84 -69.5 -110s-71.166 -39 -116.499 -39z" />
    <glyph glyph-name="apple" unicode="&#xf8ff;" 
d="M0 0v700h500v-700h-500zM81 49h340l-171 255zM50 95l170 254l-170 256v-510zM451 95v510l-172 -256zM250 395l171 255h-340z" />
    <glyph glyph-name=".null" horiz-adv-x="0" 
 />
    <glyph glyph-name="nonmarkingreturn" horiz-adv-x="333" 
 />
    <glyph glyph-name="nbspace" horiz-adv-x="277" 
 />
    </font>
</defs>
</svg>
